<svg width="30" height="30" fill="none" xmlns="http://www.w3.org/2000/svg"><g clip-path="url(#clip0_6_2610)"><path d="M14.118 29.975a14.94 14.94 0 01-9.082-3.763l3.127-3.127a10.542 10.542 0 005.955 2.467v4.423zm-10.33-5.01a14.939 14.939 0 01-3.762-9.082h4.422a10.542 10.542 0 002.467 5.954l-3.127 3.128zM.026 14.118a14.94 14.94 0 013.762-9.082l3.127 3.127a10.542 10.542 0 00-2.467 5.955H.026zm5.01-10.33A14.94 14.94 0 0114.118.026v4.422a10.542 10.542 0 00-5.955 2.467L5.036 3.788zM15.882.026a14.94 14.94 0 019.082 3.762l-3.127 3.127a10.542 10.542 0 00-5.955-2.467V.026zm10.33 5.01a14.94 14.94 0 013.762 9.082h-4.422a10.542 10.542 0 00-2.467-5.955l3.127-3.127zm3.762 10.847a14.94 14.94 0 01-3.762 9.082l-3.127-3.128a10.542 10.542 0 002.467-5.954h4.422zm-5.01 10.33a14.94 14.94 0 01-9.082 3.762v-4.423a10.542 10.542 0 005.955-2.467l3.127 3.127zM15 23.822a8.824 8.824 0 110-17.646 8.824 8.824 0 010 17.647z" fill="#AD0002"/></g><defs><clipPath id="clip0_6_2610"><path fill="#fff" d="M0 0h30v30H0z"/></clipPath></defs></svg>