<svg width="14" height="14" fill="none" xmlns="http://www.w3.org/2000/svg"><g clip-path="url(#clip0_2_95)" fill="#181717"><path d="M10.5 0h-7A3.501 3.501 0 000 3.5v7C0 12.432 1.568 14 3.5 14h7c1.932 0 3.5-1.568 3.5-3.5v-7C14 1.568 12.432 0 10.5 0zM7 10.5A3.501 3.501 0 013.5 7c0-1.932 1.568-3.5 3.5-3.5s3.5 1.568 3.5 3.5-1.568 3.5-3.5 3.5zm3.745-6.566a.702.702 0 01-.7-.7c0-.385.315-.7.7-.7.385 0 .7.315.7.7 0 .385-.315.7-.7.7z"/><path d="M7 9.1a2.1 2.1 0 100-4.2 2.1 2.1 0 000 4.2z"/></g><defs><clipPath id="clip0_2_95"><path fill="#fff" d="M0 0h14v14H0z"/></clipPath></defs></svg>