<svg width="14" height="14" fill="none" xmlns="http://www.w3.org/2000/svg"><g clip-path="url(#clip0_2_79)" fill="#181717"><path d="M13.533 13.533V8.748c0-2.352-.506-4.149-3.25-4.149-1.323 0-2.205.719-2.564 1.405h-.033V4.81H5.089v8.722H7.8V9.205c0-1.143.213-2.238 1.617-2.238 1.389 0 1.405 1.29 1.405 2.303v4.247h2.711v.016zM.679 4.811H3.39v8.722H.68V4.811zM2.035.467c-.866 0-1.568.702-1.568 1.568 0 .865.702 1.584 1.568 1.584.865 0 1.568-.719 1.568-1.584 0-.866-.703-1.568-1.568-1.568z"/></g><defs><clipPath id="clip0_2_79"><path fill="#fff" d="M0 0h14v14H0z"/></clipPath></defs></svg>