<svg width="24" height="15" fill="none" xmlns="http://www.w3.org/2000/svg"><g clip-path="url(#clip0_74_58)"><path d="M3.85 14.454v-1.405c0-.537-.306-.888-.831-.888a.844.844 0 00-.745.398.758.758 0 00-.702-.398.69.69 0 00-.613.327v-.281H.5v2.247h.46v-1.24c0-.399.196-.587.502-.587s.46.21.46.586v1.24h.459v-1.24c0-.398.22-.586.502-.586.307 0 .46.21.46.586v1.24h.508zm6.814-2.247H9.92v-.679h-.46v.679h-.415v.444h.416v1.031c0 .515.196.818.722.818.196 0 .416-.07.569-.164l-.133-.422a.7.7 0 01-.395.117c-.22 0-.307-.142-.307-.373V12.65h.745v-.444h.003zm3.9-.05a.616.616 0 00-.55.328v-.28h-.459v2.246h.46v-1.265c0-.374.153-.586.439-.586.086 0 .196.024.285.046l.133-.469c-.092-.02-.222-.02-.309-.02zm-5.893.235c-.22-.163-.526-.234-.855-.234-.525 0-.875.28-.875.725 0 .374.263.586.722.655l.22.024c.24.046.372.117.372.235 0 .163-.176.28-.482.28a1.16 1.16 0 01-.702-.234l-.22.373c.24.189.57.281.899.281.612 0 .964-.305.964-.725 0-.398-.285-.608-.722-.679l-.22-.024c-.196-.025-.349-.071-.349-.21 0-.164.153-.257.396-.257.263 0 .525.118.658.188l.194-.398zm12.221-.234a.616.616 0 00-.549.327v-.28h-.459v2.246h.46v-1.265c0-.374.152-.586.438-.586.087 0 .197.024.286.046l.133-.464c-.09-.024-.22-.024-.309-.024zm-5.87 1.172c0 .68.44 1.17 1.118 1.17.307 0 .526-.07.746-.256l-.22-.398a.843.843 0 01-.549.21c-.372 0-.635-.281-.635-.726 0-.422.263-.703.635-.725.197 0 .373.071.55.21l.219-.398c-.22-.188-.44-.256-.746-.256-.678-.003-1.117.49-1.117 1.17zm4.25 0v-1.123h-.46v.28a.775.775 0 00-.658-.326c-.592 0-1.052.49-1.052 1.17 0 .678.46 1.169 1.052 1.169.306 0 .526-.117.658-.327v.28h.46V13.33zm-1.687 0c0-.398.24-.725.635-.725.373 0 .636.305.636.725 0 .398-.263.726-.636.726-.393-.025-.635-.33-.635-.726zm-5.497-1.172c-.612 0-1.051.469-1.051 1.17 0 .703.439 1.17 1.074 1.17.306 0 .612-.093.855-.306l-.22-.352a1.002 1.002 0 01-.612.235c-.286 0-.57-.142-.635-.537h1.554v-.189c.02-.722-.376-1.191-.965-1.191zm0 .423c.286 0 .482.188.526.537h-1.095c.043-.303.24-.537.569-.537zm11.412.75v-2.013h-.46v1.17a.775.775 0 00-.658-.327c-.592 0-1.051.49-1.051 1.17 0 .678.46 1.169 1.051 1.169.306 0 .526-.117.659-.327v.28h.459V13.33zm-1.687 0c0-.399.24-.726.636-.726.372 0 .635.305.635.725 0 .398-.263.726-.635.726-.396-.025-.636-.33-.636-.726zm-15.377 0v-1.124h-.46v.28a.775.775 0 00-.658-.326c-.592 0-1.051.49-1.051 1.17 0 .678.459 1.169 1.05 1.169.307 0 .527-.117.66-.327v.28h.459V13.33zm-1.708 0c0-.399.24-.726.636-.726.372 0 .635.305.635.725 0 .398-.263.726-.635.726-.396-.025-.636-.33-.636-.726z" fill="#000"/><path d="M13.88 1.709H9.887v7.043h3.995V1.709z" fill="#FF5A00"/><path d="M10.15 5.23c0-1.43.685-2.7 1.737-3.521A4.595 4.595 0 009.07.75c-2.523 0-4.565 2.004-4.565 4.48 0 2.476 2.042 4.48 4.565 4.48a4.595 4.595 0 002.816-.959 4.441 4.441 0 01-1.738-3.521z" fill="#EB001B"/><path d="M19.265 5.23c0 2.476-2.042 4.48-4.565 4.48a4.595 4.595 0 01-2.816-.959A4.426 4.426 0 0013.62 5.23c0-1.43-.685-2.7-1.737-3.521A4.588 4.588 0 0114.698.75c2.525 0 4.567 2.017 4.567 4.48z" fill="#F79E1B"/></g><defs><clipPath id="clip0_74_58"><path fill="#fff" transform="translate(.5 .5)" d="M0 0h23v14H0z"/></clipPath></defs></svg>