<svg width="14" height="15" fill="none" xmlns="http://www.w3.org/2000/svg"><g clip-path="url(#clip0_74_87)"><path d="M4.287 11.85a.83.83 0 01-.696-.42L.179 5.153c-.212-.42-.09-.947.303-1.206.394-.226.888-.097 1.13.323l3.412 6.246c.212.42.091.948-.303 1.206a.773.773 0 01-.434.13z" fill="#F69220"/><path d="M12.886 8.437c0-.452-.15-.883-.393-1.335-.364-.711-.787-1.174-1.373-1.465a2.708 2.708 0 00-1.585-.323c.182-.42.303-.84.333-1.303.06-.646-.151-1.239-.515-1.95a3.237 3.237 0 00-.888-1.044c-.363-.226-.727-.388-1.16-.42-.435-.032-.859 0-1.313.097-.151.032-.303.097-.454.13L5.356.92c-.272.097-.979.517-1.221.678l-1.191.744h-.03c-.425.29-.576.883-.334 1.367a.903.903 0 00.788.485.814.814 0 00.454-.13h.03L5.77 2.892c.182-.097.363-.162.545-.194.182-.032.363 0 .545.032a2.1 2.1 0 01.515.291c.151.13.273.29.394.485.09.193.181.387.212.613.03.227.03.42 0 .614s-.091.356-.212.517a1.17 1.17 0 01-.394.388l-1.16.743-.485.29-.303.195c-.424.258-.545.807-.303 1.27a.853.853 0 00.757.453.664.664 0 00.424-.13l.636-.387 1.645-.948c.182-.097.333-.161.515-.161s.364.032.515.096c.182.065.333.162.485.291.15.13.272.291.393.485.091.194.152.388.182.581.03.194.03.42-.03.614-.03.194-.122.356-.243.55-.12.161-.272.29-.454.42l-2.836 1.723H6.96l-.515.323-1.01.581c-.423.259-.605.84-.362 1.303a.869.869 0 00.787.517.664.664 0 00.424-.129l2.443-1.4 1.978-1.142a5.336 5.336 0 001.161-.947c.333-.356.575-.743.727-1.142a2.14 2.14 0 00.293-1.249z" fill="#606060"/></g><defs><clipPath id="clip0_74_87"><path fill="#fff" transform="translate(0 .5)" d="M0 0h14v14H0z"/></clipPath></defs></svg>