<svg width="26" height="5" fill="none" xmlns="http://www.w3.org/2000/svg"><g clip-path="url(#clip0_74_78)"><path d="M25.525.804C25.194.602 24.692.5 24.035.5h-1.722l-.64 3.093h-2.255l.145-.702h1.359l.16-.788-1.357.002.145-.699h1.4L21.456.5h-2.842l-.607 2.934h-1.043L17.576.5H16.09l-.607 2.934h-1.016L15.079.5h-1.485l-.64 3.093h-2.272l.144-.702h1.364l.161-.783-1.363-.002.145-.7h1.415L12.733.5H3.878l-.504 2.451L2.371.5H.829L0 4.5h1.472l.502-2.519.974 2.519h5.274l.642-3.094h.825L9.047 4.5h13.88l.402-1.953.65 1.953h1.473l-.674-1.596.154-.03c.34-.064.605-.204.79-.412.184-.211.278-.482.278-.807a.928.928 0 00-.476-.851zM6.942 3.594H4.689l.145-.703h1.413l.16-.79H5.009l.135-.695h2.25L6.94 3.593zm17.37-1.348c-.149.092-.363.137-.657.137h-.291l.223-1.074h.214c.244 0 .422.035.545.106a.41.41 0 01.21.374.51.51 0 01-.245.457z" fill="#83BA3B"/></g><defs><clipPath id="clip0_74_78"><path fill="#fff" transform="translate(0 .5)" d="M0 0h26v4H0z"/></clipPath></defs></svg>