<svg width="24" height="9" fill="none" xmlns="http://www.w3.org/2000/svg"><g clip-path="url(#clip0_74_55)"><path d="M19.085 1.084L21.08.715v7.951h-1.995V1.084zm2.912 0v7.578h1.994V.715l-1.994.37zM16.25 8.662h1.994V2.849H16.25v5.813zM3.071 3.67c-.253-.018-.836-.057-.836-.601 0-.659.84-.659 1.153-.659.554 0 1.272.171 1.783.33 0 0 .288.105.528.21l.022.004v-1.8l-.03-.008C5.087.926 4.385.716 3.08.716.832.715.037 2.075.037 3.24c0 .672.28 2.252 2.853 2.436.22.014.798.049.798.615 0 .465-.473.742-1.272.742-.874 0-1.72-.233-2.235-.452v1.857c.77.21 1.64.316 2.658.316 2.197 0 3.182-1.286 3.182-2.564 0-1.449-1.099-2.388-2.95-2.52zm12.055-.904c-1.842.061-2.776.922-2.776 2.63v3.27h2.011v-2.67c0-1.022.127-1.461 1.298-1.5V2.791c-.203-.04-.533-.026-.533-.026zm-5.408.079c-.043.114-.364 1.053-1.137 2.024V.715l-2.058.422v7.525h2.058V6.335c.596.93.892 2.327.892 2.327h2.463c-.245-1.054-1.31-2.994-1.31-2.994a9.587 9.587 0 001.445-2.828H9.718v.005zm7.525-.553c.541 0 .985-.457.985-1.019 0-.562-.44-1.023-.985-1.023-.54 0-.98.457-.98 1.023 0 .562.44 1.019.98 1.019z" fill="url(#paint0_linear_74_55)"/></g><defs><linearGradient id="paint0_linear_74_55" x1=".042" y1="4.499" x2="23.992" y2="4.499" gradientUnits="userSpaceOnUse"><stop stop-color="#872166"/><stop offset="1" stop-color="#4F2455"/></linearGradient><clipPath id="clip0_74_55"><path fill="#fff" d="M0 0h24v9H0z"/></clipPath></defs></svg>