<svg viewBox="0 0 30 30" xmlns="http://www.w3.org/2000/svg" xmlns:xlink="http://www.w3.org/1999/xlink"><style>:root&gt;svg{display:none}:root&gt;svg:target{display:block}</style><svg fill="none" viewBox="0 0 30 30" id="sprite--arrow-circle" xmlns="http://www.w3.org/2000/svg"><rect width="30" height="30" rx="15" fill="#AD0002"/><g clip-path="url(#aclip0_6_2528)"><path d="M21.675 10.288a1.11 1.11 0 00-1.57 0l-7.068 7.068-3.141-3.141a1.11 1.11 0 10-1.57 1.57l3.926 3.927a1.107 1.107 0 001.57 0l7.853-7.853a1.11 1.11 0 000-1.57z" fill="#fff"/></g><defs><clipPath id="aclip0_6_2528"><path fill="#fff" transform="translate(8 8)" d="M0 0h14v14H0z"/></clipPath></defs></svg><svg fill="none" viewBox="0 0 12 8" id="sprite--arrow-dark" xmlns="http://www.w3.org/2000/svg"><path d="M6.02 7.473a.846.846 0 01-.608-.252L.275 2.011a.878.878 0 010-1.232.854.854 0 011.216 0L6.02 5.38 10.55.788a.849.849 0 011.162.045.874.874 0 01.045 1.179l-5.138 5.21a.85.85 0 01-.599.25z" fill="#181717"/></svg><svg viewBox="0 0 14 20" id="sprite--arrow-long-none" xmlns="http://www.w3.org/2000/svg"><path d="M7.864 19.09V3.104l4.632 4.812a.847.847 0 001.248.011.912.912 0 00.256-.65.94.94 0 00-.267-.646L7.608.266A.859.859 0 006.989 0a.859.859 0 00-.618.266L.246 6.63A.928.928 0 000 7.27a.927.927 0 00.256.634.859.859 0 00.611.267.86.86 0 00.616-.256l4.631-4.812v15.988c0 .241.092.472.257.643.164.17.386.266.618.266a.859.859 0 00.619-.266.927.927 0 00.256-.643z"/></svg><svg viewBox="0 0 14 8" id="sprite--arrow-none" xmlns="http://www.w3.org/2000/svg"><path d="M7.023 7.969a1.005 1.005 0 01-.709-.288L.321 1.728a.993.993 0 010-1.41 1.006 1.006 0 011.418 0l5.284 5.26 5.284-5.25a1.003 1.003 0 011.357.053.99.99 0 01.052 1.347L7.723 7.68a1.002 1.002 0 01-.7.288z"/></svg><svg fill="none" viewBox="0 0 10 10" id="sprite--arrow-white" xmlns="http://www.w3.org/2000/svg"><path d="M2.127.22C1.226-.297.495.127.495 1.166v7.667c0 1.04.73 1.463 1.632.947L8.83 5.936c.902-.517.902-1.355 0-1.872L2.127.22z" fill="#fff"/></svg><svg fill="none" viewBox="0 0 26 26" id="sprite--bonus-circle-icon" xmlns="http://www.w3.org/2000/svg"><rect width="26" height="26" rx="13" fill="#AD0002"/><path d="M18.25 10.042h-4.47v2.24H19v-1.494a.75.75 0 00-.75-.746zm-10.5 0a.747.747 0 00-.75.746v1.493h5.252v-2.24H7.75zm0 2.986v5.225c0 .413.335.747.75.747h3.752v-5.972H7.75zM17.5 19c.415 0 .75-.334.75-.747v-5.225h-4.47V19h3.72zm-4.498-9.709c.004 0 .004.004.004.008h3.001c1.038 0 1.5-.516 1.5-1.147 0-.632-.466-1.148-1.5-1.148-.97 0-1.732.445-2.25.96a1.456 1.456 0 00-1.517-.015C11.72 7.437 10.963 7 10 7c-1.038 0-1.5.516-1.5 1.148 0 .631.462 1.147 1.5 1.147h3.001v-.004zm3.747-1.112c0 .31-.407.374-.75.374h-1.704c-.004-.012-.012-.02-.016-.032.383-.37.958-.715 1.72-.715.343 0 .75.064.75.373zm-7.498 0c0-.31.407-.373.75-.373.746 0 1.313.334 1.692.687-.012.02-.02.04-.032.06h-1.66c-.343 0-.75-.068-.75-.374z" fill="#fff"/></svg><svg fill="none" viewBox="0 0 16 16" id="sprite--bonus-red-icon" xmlns="http://www.w3.org/2000/svg"><g clip-path="url(#gclip0_108_10)"><path d="M14.874 4.079H8.979v2.968h6.884V5.068a.992.992 0 00-.99-.99zm-13.847 0a.988.988 0 00-.99.99v1.978h6.926V4.08H1.027zm0 3.958v6.926c0 .548.442.99.989.99h4.947V8.037H1.027zm12.857 7.916c.548 0 .99-.442.99-.99V8.037H8.979v7.916h4.905zM7.953 3.084c.005 0 .005.005.005.01h3.958c1.368 0 1.979-.683 1.979-1.52S13.279.053 11.916.053c-1.279 0-2.284.59-2.968 1.273a1.913 1.913 0 00-2-.02C6.263.625 5.263.046 3.995.046c-1.368 0-1.979.685-1.979 1.521 0 .837.61 1.521 1.979 1.521h3.958v-.005zm4.942-1.473c0 .41-.537.494-.99.494H9.659c-.005-.016-.016-.026-.02-.042.504-.49 1.262-.947 2.268-.947.452 0 .989.084.989.495zm-9.89 0c0-.411.537-.495.99-.495.984 0 1.732.442 2.232.91-.016.027-.027.053-.043.08H3.995c-.453 0-.99-.09-.99-.495z" fill="#AD0002"/></g><defs><clipPath id="gclip0_108_10"><path fill="#fff" d="M0 0h15.895v16H0z"/></clipPath></defs></svg><svg fill="none" viewBox="0 0 19 18" id="sprite--bonus-white-icon" xmlns="http://www.w3.org/2000/svg"><g clip-path="url(#hclip0_74_3292)"><path d="M17.344 4.589h-6.676v3.34h7.797V5.701a1.12 1.12 0 00-1.121-1.113zm-15.681 0c-.62 0-1.121.497-1.121 1.113v2.226h7.844v-3.34H1.663zm0 4.452v7.793c0 .615.5 1.113 1.12 1.113h5.603V9.042H1.663zm14.56 8.906c.62 0 1.121-.498 1.121-1.113V9.04h-6.676v8.906h5.555zM9.506 3.47c.006 0 .006.006.006.012h4.482c1.55 0 2.241-.77 2.241-1.712 0-.941-.697-1.71-2.24-1.71-1.449 0-2.587.662-3.362 1.432a2.178 2.178 0 00-2.265-.024C7.593.705 6.46.053 5.024.053c-1.55 0-2.241.77-2.241 1.712 0 .941.691 1.71 2.241 1.71h4.482V3.47zm5.597-1.658c0 .462-.608.556-1.12.556h-2.546c-.006-.017-.018-.03-.023-.047.572-.55 1.43-1.066 2.568-1.066.513 0 1.12.095 1.12.557zm-11.2 0c0-.462.609-.557 1.121-.557 1.115 0 1.961.498 2.527 1.025-.018.03-.03.059-.047.088h-2.48c-.512 0-1.12-.1-1.12-.556z" fill="#fff"/></g><defs><clipPath id="hclip0_74_3292"><path fill="#fff" transform="translate(.5)" d="M0 0h18v18H0z"/></clipPath></defs></svg><svg fill="none" viewBox="0 0 4 7" id="sprite--breadcrumbs" xmlns="http://www.w3.org/2000/svg"><path d="M3.985 3.488a.502.502 0 01-.144.355L.864 6.84a.496.496 0 01-.85-.355c0-.133.052-.26.145-.355l2.63-2.642L.164.846A.502.502 0 01.522.022a.494.494 0 01.342.12L3.84 3.139a.501.501 0 01.143.35z" fill="#181717" fill-opacity=".5"/></svg><svg fill="none" viewBox="0 0 18 18" id="sprite--check-circle" xmlns="http://www.w3.org/2000/svg"><path d="M9 0C4.038 0 0 4.038 0 9s4.038 9 9 9 9-4.038 9-9-4.038-9-9-9zm5.03 6.632l-5.752 5.706a.885.885 0 01-1.24.023L3.992 9.586a.915.915 0 01-.067-1.263.892.892 0 011.263-.045l2.413 2.21 5.143-5.142a.899.899 0 011.286 0 .899.899 0 010 1.286z" fill="#107935"/></svg><svg fill="none" viewBox="0 0 20 20" id="sprite--close-black-icon" xmlns="http://www.w3.org/2000/svg"><g clip-path="url(#kclip0_17_7362)"><path d="M1.862.054A1.808 1.808 0 00.583 3.14L7.443 10l-6.86 6.858a1.808 1.808 0 002.557 2.558l6.86-6.86 6.86 6.86a1.809 1.809 0 002.556-2.558L12.557 10l6.86-6.86A1.809 1.809 0 0016.858.585L10 7.444 3.14.583a1.808 1.808 0 00-1.278-.53z" fill="#181717"/></g><defs><clipPath id="kclip0_17_7362"><path fill="#fff" d="M0 0h20v20H0z"/></clipPath></defs></svg><svg fill="none" viewBox="0 0 18 18" id="sprite--close-circle" xmlns="http://www.w3.org/2000/svg"><g clip-path="url(#lclip0_9_2758)"><path d="M15.36 2.636c-3.51-3.509-9.22-3.509-12.73 0-3.508 3.51-3.508 9.22 0 12.729a8.974 8.974 0 006.365 2.63 8.973 8.973 0 006.364-2.63c3.509-3.51 3.509-9.22 0-12.729zm-2.652 9.016a.75.75 0 11-1.06 1.06l-2.652-2.651-2.65 2.65a.75.75 0 11-1.061-1.06l2.65-2.65-2.65-2.652a.75.75 0 111.06-1.06l2.65 2.65 2.652-2.65a.75.75 0 111.06 1.06L10.057 9l2.65 2.652z" fill="#AD0002"/></g><defs><clipPath id="lclip0_9_2758"><path fill="#fff" d="M0 0h18v18H0z"/></clipPath></defs></svg><svg fill="none" viewBox="0 0 20 20" id="sprite--close-white-icon" xmlns="http://www.w3.org/2000/svg"><g clip-path="url(#mclip0_32_8603)"><path d="M1.862.054A1.808 1.808 0 00.584 3.14L7.443 10l-6.86 6.858a1.808 1.808 0 002.558 2.558l6.86-6.86 6.859 6.86a1.808 1.808 0 002.557-2.558L12.557 10l6.86-6.86A1.808 1.808 0 0016.859.585L10 7.444 3.14.583a1.808 1.808 0 00-1.278-.53z" fill="#fff"/></g><defs><clipPath id="mclip0_32_8603"><path fill="#fff" d="M0 0h20v20H0z"/></clipPath></defs></svg><svg fill="none" viewBox="0 0 20 18" id="sprite--hamburger" xmlns="http://www.w3.org/2000/svg"><path fill-rule="evenodd" clip-rule="evenodd" d="M8.571 16.308c0-.807.64-1.462 1.429-1.462h8.571c.79 0 1.429.655 1.429 1.462 0 .807-.64 1.461-1.429 1.461H10c-.789 0-1.429-.654-1.429-1.461zM0 1.692C0 .885.64.231 1.429.231H18.57C19.361.23 20 .885 20 1.692s-.64 1.462-1.429 1.462H1.43C.639 3.154 0 2.499 0 1.692zM0 9c0-.807.64-1.462 1.429-1.462H18.57c.791 0 1.43.655 1.43 1.462 0 .807-.64 1.461-1.429 1.461H1.43C.639 10.461 0 9.807 0 9z" fill="#000"/></svg><svg fill="none" viewBox="0 0 16 16" id="sprite--mail-icon" xmlns="http://www.w3.org/2000/svg"><path d="M15.86 3.179l-4.853 4.82 4.852 4.822A1.39 1.39 0 0016 12.22V3.78c0-.216-.053-.419-.14-.602zm-1.266-.804H1.406c-.216 0-.419.053-.602.14l6.202 6.172c.548.548 1.44.548 1.988 0l6.202-6.171a1.39 1.39 0 00-.602-.141zM.14 3.179A1.39 1.39 0 000 3.78v8.438c0 .216.053.419.14.602L4.994 8 .141 3.179z" fill="#313131"/><path d="M10.344 8.663l-.687.687c-.914.913-2.4.913-3.314 0l-.687-.687-4.852 4.821c.183.088.386.141.602.141h13.188c.216 0 .419-.053.602-.14l-4.852-4.822z" fill="#313131"/></svg><svg fill="none" viewBox="0 0 18 18" id="sprite--mail-white-icon" xmlns="http://www.w3.org/2000/svg"><path d="M17.841 3.576L12.382 9l5.46 5.424c.098-.206.158-.434.158-.678V4.254c0-.244-.06-.472-.159-.678zm-1.423-.904H1.582c-.244 0-.471.06-.678.158l6.977 6.942c.617.617 1.62.617 2.237 0l6.978-6.942a1.563 1.563 0 00-.678-.158zM.159 3.576A1.564 1.564 0 000 4.254v9.492c0 .244.06.472.159.678L5.618 9 .158 3.576z" fill="#fff"/><path d="M11.637 9.746l-.773.772a2.64 2.64 0 01-3.728 0l-.773-.772-5.459 5.423c.207.1.434.159.678.159h14.836c.244 0 .472-.06.678-.159l-5.46-5.423z" fill="#fff"/></svg><svg fill="none" viewBox="0 0 18 18" id="sprite--map-icon" xmlns="http://www.w3.org/2000/svg"><path d="M9 0a6.797 6.797 0 00-6.79 6.79c0 5.39 6.061 10.804 6.32 11.032a.712.712 0 00.955-.013c.257-.241 6.305-5.954 6.305-11.02A6.798 6.798 0 009 0zm0 10.027a3.237 3.237 0 110-6.475 3.237 3.237 0 010 6.475z" fill="#fff"/></svg><svg fill="none" viewBox="0 0 18 18" id="sprite--phone-icon" xmlns="http://www.w3.org/2000/svg"><g clip-path="url(#rclip0_15_1060)"><path d="M17.51 13.21l-2.512-2.512c-.897-.897-2.422-.538-2.781.628-.27.808-1.166 1.256-1.974 1.077-1.794-.449-4.216-2.781-4.665-4.665-.269-.808.27-1.705 1.077-1.974 1.166-.359 1.525-1.884.628-2.781L4.77.471c-.718-.628-1.794-.628-2.422 0L.644 2.176C-1.06 3.97.824 8.725 5.04 12.94c4.217 4.216 8.971 6.19 10.765 4.396l1.705-1.705c.628-.717.628-1.794 0-2.422z" fill="#fff"/></g><defs><clipPath id="rclip0_15_1060"><path fill="#fff" d="M0 0h18v18H0z"/></clipPath></defs></svg><svg fill="none" viewBox="0 0 30 20" id="sprite--quote" xmlns="http://www.w3.org/2000/svg"><path d="M13.334 12.92c.613 3.43-2.02 6.615-6.43 6.615S.106 13.716.902 8.693c.738-4.658 5.795-7.576 9.457-8.22a.653.653 0 01.763.703l-.13 1.545a.638.638 0 01-.514.583c-3.948.67-6.297 6.586-3.88 5.878 2.51-.734 6.123.31 6.736 3.738zm15.828 0c-.612-3.43-4.226-4.47-6.737-3.736-2.416.708-.065-5.21 3.88-5.877a.638.638 0 00.513-.583l.13-1.545a.653.653 0 00-.762-.704c-3.661.644-8.719 3.563-9.457 8.22-.796 5.022 1.592 10.842 6.002 10.842s7.043-3.187 6.431-6.617z" fill="#FFB800"/></svg><svg fill="none" viewBox="0 0 14 14" id="sprite--update-icon" xmlns="http://www.w3.org/2000/svg"><g clip-path="url(#tclip0_74_92)"><path d="M7 .01A6.99 6.99 0 1013.99 7 6.999 6.999 0 007 .01zm2.356 9.346a.635.635 0 01-.899 0L6.551 7.449A.635.635 0 016.365 7V3.187a.635.635 0 011.27 0v3.55l1.72 1.72a.635.635 0 010 .899z" fill="#313131"/></g><defs><clipPath id="tclip0_74_92"><path fill="#fff" d="M0 0h14v14H0z"/></clipPath></defs></svg></svg>