<svg width="26" height="26" fill="none" xmlns="http://www.w3.org/2000/svg"><g clip-path="url(#clip0_5_1276)"><path d="M25.932 9.973a1.38 1.38 0 00-1.19-.95l-7.504-.681-2.967-6.946a1.382 1.382 0 00-2.542.002L8.762 8.342l-7.506.681a1.382 1.382 0 00-.784 2.418l5.672 4.975-1.672 7.368a1.381 1.381 0 002.055 1.493L13 21.408l6.47 3.87a1.382 1.382 0 002.056-1.493l-1.671-7.369 5.672-4.974c.417-.365.576-.941.405-1.469z" fill="#FFB800"/></g><defs><clipPath id="clip0_5_1276"><path fill="#fff" d="M0 0h26v26H0z"/></clipPath></defs></svg>