<svg width="178" height="4" fill="none" xmlns="http://www.w3.org/2000/svg"><g clip-path="url(#clip0_19_3299)"><path d="M41.691 2.142c.151-.062.263-.133.078-.158-.122-.016-.253-.016-.38-.02-.297-.012-.307-.01-.2.148.063.094.03.135-.19.124-.102-.005-.215-.025-.302-.012-.064.01-.142.092-.127.096.234.099.224.31.663.318.049 0 .088.07.132.103l-.215.012a.76.76 0 01-.078-.005c-.156 0-.205-.164-.429-.064.122.048.249.096.366.147.029.013.029.04.039.061.16-.016.317-.032.565-.03 0-.018-.078-.04-.073-.052.024-.037.078-.07.122-.105.063.025.16.043.18.073.015.023-.073.06-.229.085-.024.066.025.148.025.247 0 .144-.454.057-.39.201-.088 0-.18.002-.264-.007-.112-.016-.219-.043-.326-.066-.156.03.414.156-.088.144-.083 0-.17.018-.253.028.087.039.238.119.253.112.331-.112.59-.01.873.048.063.014.234.057.165-.069-.117-.208-.039-.236.37-.19.108.012.196.05.293.078.044-.039.088-.078.137-.117.034.01.073.016.097.03.254.144.551.176.82.087.116-.039.18-.087.067-.144a1.538 1.538 0 00-.438-.156c-.05.005-.02-.009.005-.02.019.011.038.023.063.036-.034.01-.063.02-.102.028-.005 0-.03-.016.034-.041.082-.042.087-.067.097-.106v.016c-.039-.009-.083-.013-.112-.027-.01-.005.024-.028.034-.044.03.014.054.026.078.055.195-.002.39-.023.585-.04-.024-.047-.053-.09.112-.282.176-.044-.107.135-.263.14-.117.001-.234-.024-.351-.037l.263-.257c.21.165.293-.023.439-.032.034 0 .078.03-.088.186a.614.614 0 00.492.254c.273.009.225.048.054.11-.102.036-.107.215-.005.249a.42.42 0 00.2 0c.088-.039.078-.2.288-.039.029-.018.092-.037.087-.05-.02-.067-.039-.135-.092-.195-.054-.06-.239-.1-.078-.18.083.036.156.084.253.107.073.016.224-.018.264.002.17.096.165.02.21-.036a.296.296 0 01.136-.014c.087.043.17.09.243.14.132.093.264.089.43.015.053-.025.15-.03.224-.045.004.254.321.055.492.077.053.007.117.044.122.07.024.203-.044.233-.56.274-.055.004-.094.04-.137.064.043.032.082.068.136.098a.75.75 0 00.137.06c.346-.128.862.068 1.16-.138.034.016.107.035.102.048-.014.087.098.103.23.083.043-.007.063-.076.048-.115-.015-.034-.17-.068.024-.089.049-.004.098.005.151.007.498.012-.078-.112.103-.146-.064-.005-.117 0-.17-.003-.132-.007-.24-.13-.405-.023a.34.34 0 01-.137-.009c-.068-.082-.21-.185-.151-.245.098-.105.166.078.312.04.02-.005.054 0 .068-.008.122-.048.263-.096.366-.006.078.064.087.146.122.254.126.043.424-.055.424.119 0 .091.18.055.287.07.108.017.264-.018.298.07.01.031.039.061.058.093.034-.03.054-.064.102-.087a.442.442 0 01.171-.043c.492.002.492.004.682-.22-.024-.01-.058.009-.092.027-.024-.018-.073-.039-.063-.052.01-.03.048-.057.078-.085a.203.203 0 01.078.112c.068.046.18.048.248.073.083.032.132.076.185-.006.025-.037.015-.11.151-.042.064.032.254.074.03.129a.338.338 0 00-.117.045c-.03.02-.059.064-.04.071.088.037.19.064.298.092a.26.26 0 00.088-.05c.092-.115.131-.252.287-.342.156-.089.137-.135.005-.208-.024-.014.04-.06.064-.091.048.02.117.034.146.06.16.123.19.274.565.336.605.1.595.116 1.34-.083-.048-.02-.092-.041-.14-.062l.175-.082c.102-.135.322-.03.58-.1.059-.017.015.02-.03.057-.019-.026-.063-.05-.053-.071.025-.048.078-.092.117-.138.02.03.04.062-.034.154-.156.164.38.13.16.292-.048.035-.102.145.089.138.2-.007.292.117.502.06.102-.028.248-.028.326-.065.22-.105.293-.064.332.055 0 .005.17 0 .253-.011.015 0 0-.048.02-.069.058-.053-.078-.174.141-.153.17.016.137.098.024.18-.092.071.137.174.342.181a25.8 25.8 0 001.194-.158c-.122-.03-.244-.075-.376-.089-.14-.014-.258-.03-.195-.105.02-.025.152-.034.24-.041.073-.005.15.007.224.009.058-.02.112-.044.239-.053.019-.011-.02-.027-.059-.043.039-.012.083-.035.112-.03.063.005.122.025.18.037-.048.013-.102.03-.238.039-.127.011-.18.032-.24.052l.103.224c.322.014.629.019.96-.009.23-.02.517-.068.8.02.229.072.526.012.79-.024.248-.037.765-.019 1.072.039.068.013.146.034.21.025.54-.064 1.13.04 1.647-.103.292-.08.604-.071.936-.06.287.01.57.078.887-.013.141-.04.444.013.639.057.287.066.487.123.726-.053.088-.064.429-.087.692-.06.18.019.385-.128.57.033.137.116.395-.117.576.016.516-.099 1.12.084 1.623-.11.083-.032.297.004.448.016.137.009.234.011.273-.076.034-.073.146-.064.137.007-.01.124.18.099.307.1.087 0 .17-.038.263-.054.4-.076.79-.217 1.228-.023.025.012.249-.091.43.007.058.03.311.005.448-.025.346-.071.638-.073.97.039.19.064.472.064.692-.042.166-.08.35-.178.624-.03.063.035.38-.05.546-.027.15.02.273.094.463.09.102 0 .234.032.302.011.648-.2 1.326-.044 1.989-.041.22 0 .419.034.668-.003.19-.03.468.067.701.113.19.034.41.148.488-.05.234 0 .463-.18.697 0 .224-.037.444-.088.677-.108.24-.02.508-.142.737.023.02.013.17-.021.263-.019.19.003.419-.013.56.03.156.048.244.076.38.01a.818.818 0 01.478-.07c.459.062.98-.025 1.394.133.278-.123.668.156.946-.062.058-.045.307-.05.473-.054.443-.014.892-.04 1.326-.016.438.025.887 0 1.33.112.249.064.678.018.985-.032.322-.05.629.045.887-.007.278-.057.56-.067.839-.087.385-.028.833-.069 1.17-.007.73.135 1.491.126 2.237.172.36.022.736-.014 1.106-.007.147 0 .293.062.439.06.132 0 .297-.09.39-.072.492.092.95-.064 1.438-.027.307.023.638.105.96-.012.049-.018.244.08.371.083.394.004.794.116 1.184-.007.234.066.478-.053.736.025.215.066.556.055.736.133.278.119.463.098.717 0 .278-.11.653-.094.975-.096.589-.005 1.204-.167 1.779.045.083.032.248.019.38.023.346.016.687.032.999.122.161.045.366.119.536-.01.176-.13.273.097.493.023.166-.055.638-.004.921.014.39.025.775.055 1.175-.02a5.255 5.255 0 011.296-.071c.308.018.615.045.922.043.258 0 .531-.02.775-.062.131-.023.146.012.224.023.161.028.351.048.507.032.478-.046.936-.096 1.296.124.015.011.108 0 .161-.01.205-.031.405-.066.61-.096a.415.415 0 01.161.005c.077.032.185.108.19.105.258-.087.585.02.784-.032.268-.068.493-.025.736-.023.195 0 .381.023.58-.036.083-.023.283.064.439.073.137.007.278-.034.419-.034.176 0 .415-.003.507.045.142.071.322-.032.463.067.078.052.4.014.629-.019.185-.025.361-.059.541-.086.225-.035.493-.014.741-.005.103.005.205.069.293.062.458-.041.911-.092 1.379-.053.385-.176.595-.091.741.105.01.012.112.021.137.012.053-.018.112-.05.112-.078.019-.133.024-.142.195-.124.146.016.365.08.424.055.273-.116.37.133.585.053.195-.073.355-.05.536.014a.506.506 0 00.219-.035.713.713 0 01.541-.011c.088.034.22.046.337.06.121.015.248.02.37.031-.039.033-.078.065-.112.099.063.014.127.032.195.041.209.028.414.025.629.092.239.073.609.006.858-.08.195-.07.355-.138.614-.122.253.016.512.03.77.04.268.01.546.059.804-.028a.33.33 0 01.156.048c.098.1.142.128.215.114a.482.482 0 00.122-.043c.131-.071.263-.087.394 0 .268-.08.39.203.654.061.18-.096.453-.04.604-.1.366-.14.795-.094 1.194-.122.171-.011.38-.096.58.014.044.023.332-.064.517-.087.171-.02.273-.055.37-.13.035-.03.283-.01.429 0 .147.011.322.07.429.048.2-.044.254.02.376.055.19.05.375.018.546-.057.141-.062.312-.195.546-.037a.443.443 0 00.107-.018 5.56 5.56 0 01.794-.067c.01-.036.015-.07.025-.107.053.004.107.013.161.011.102-.004.199-.02.302-.023.122 0 .39-.132.307.076-.025.062.385.144.517.103.019-.007-.035-.067-.054-.103-.034-.053-.141-.124-.102-.153.082-.062.19-.017.307.016.141.038.365.02.487.066.137.053.205.073.351.016.024-.01.151.043.239.062.063.013.136.013.205.02-.025-.036-.054-.07-.069-.107-.009-.023.01-.048.015-.071.054.004.117.002.161.016.175.06.219.226.487.19.166-.023.395-.04.493-.165.092-.121.394-.069.614-.055.034 0 .058.028.092.044-.043.009-.087.02-.131.025-.088.004-.229-.012-.117.064.2.133.585.144.848.023.122-.058.146-.04.151.025.015.114.161.117.288.057.239-.107.526-.135.745-.046.312.124.493.046.717-.036.219-.083.37-.076.405.039.043.135.102.132.326.082.234-.053.288-.032.639.05.126.032.292.03.438.044l.58.062c.054.004.108.009.161.011.01-.037.015-.07-.087-.156-.035-.027.043-.006.121.014-.053.01-.107.03-.151.025-.102-.011-.195-.036-.292-.055a.878.878 0 01.326.016c.161.05.215.053.317.094-.034-.084-.078-.14-.107-.194-.01-.019.034-.041.054-.062.063.014.175.027.175.041 0 .062-.034.124-.127.215-.019-.007 0 .03.039.055.044.028.098.103.191.02.053-.05.078-.107.112-.162.17.053.351.1.507.16.043.016-.044.106.131.058.088-.023.166-.058.244-.09.112-.045.185-.091.341-.002.112.062.405-.016.546.085a.22.22 0 00.102.004c.21-.135.498-.087.771-.082.073 0 .185-.027.209-.057.049-.053.122-.096.166-.025.122.194.541.089.775.185.2.082.492.085.775.027.083-.018.239.055.356.05.136-.004.258-.056.4-.072.058-.007.141.022.204.04.083.024.088.124.268.044.337-.149.717-.087 1.043-.004.312.077.556.08.81-.037.195-.09.409-.144.643-.023.522-.069 1.024.023 1.54.03.044 0 .117-.01.132-.023.117-.128.38-.011.507-.062.21-.087.361.128.546.007.224.158.331.062.439-.043a.77.77 0 00.331.02c.317-.023.663.016.99.04.058.004.102.059.146.09.024.019.044.042.063.062.029-.016.088-.034.088-.05-.029-.192.341-.197.541-.199.395-.005.78-.087 1.184-.025.249.039.205-.067.234-.149v.016c-.039-.01-.082-.014-.112-.027-.009-.005.025-.028.034-.044.03.014.054.025.078.055.468.018.931.114 1.419.025.058-.011.287.035.434.053.092.011.214.057.263.043.409-.114.677-.002.98.101.073.025.321-.037.36-.014.2.126.459-.07.649.037.029.016.541 0 .643-.012.297-.032.6-.034.921 0 .225.026.405-.006.517-.096.059-.045 0-.13.2-.039.312.142.692.07 1.048.044.258-.018.497-.078.78 0 .18.048.653-.062.853-.149.253-.112.556-.194.751-.34.112-.085.063-.12-.025-.184-.058-.039.059-.176-.209-.066-.074-.05-.195-.099-.22-.153-.053-.138.146-.238.307-.34.088-.054.254-.12.225.037 0 .005.102.026.136.016.112-.025.219-.057.312-.093.249-.094.536-.15.824-.21.248-.054.57-.145.317-.333-.015-.011.068-.045.073-.07.014-.042.034-.11 0-.12-.127-.032-.239-.018-.259.069 0 .01-.087.016-.136.023.044-.156-.21-.13-.395-.137-.185-.007-.307-.053-.453-.101-.434-.142-.712-.382-1.282-.44-.083-.009-.127-.093-.185-.144-.02-.018-.03-.061-.039-.061-.347-.005-.576-.11-.834-.2-.229-.077-.497-.13-.756-.187-.17-.039-.351-.085-.536-.096-.161-.012-.346.073-.487-.03-.702.066-1.433.073-2.121.183-.136.02-.355.069-.399.046-.195-.103-.439.011-.629-.05-.098-.03-.273-.078-.322-.062-.287.107-.492-.02-.726-.044-.239-.023-.473-.011-.717-.087-.175-.055-.511-.004-.77.014-.594.041-1.184.09-1.774.135-.063.005-.161.044-.171.039-.209-.135-.434-.03-.663-.025-.341.007-.682-.035-1.033.02-.268.044-.565.053-.853.062-.6.023-1.199.034-1.76.167-.136.032-.351-.011-.531-.02l-1.077-.055c-.273.15-.707-.055-.985.094-.01.004-.049-.003-.073-.003-.829-.018-1.662-.039-2.491-.055-.341-.007-.673-.073-1.038.01-.156.034-.439-.026-.634-.067-.278-.06-.516-.078-.755.028a.536.536 0 01-.19.038c-.332-.162-.6-.006-.912.014-.39.025-.863.03-1.223-.119-.186-.075-.371-.11-.498.035-.024.027-.073.048-.107.073-.014-.032-.039-.067-.039-.099.01-.08.068-.119-.205-.07-.575.1-1.189.031-1.784 0-.19-.012-.273.004-.394.093-.152.11-.078.1.102.112.068.005.132.026.2.037-.049.023-.093.055-.151.069-.342.075-.512.027-.576-.181-.024-.073-.034-.117-.199-.11-.195.007-.381-.05-.595.007-.088.025-.283-.046-.434-.06a.877.877 0 00-.283.014 1.186 1.186 0 01-.697.007.626.626 0 00-.229-.011c-.307.032-.619.119-.872-.046-.317.11-.605.068-.897-.025a.438.438 0 00-.22.054.269.269 0 00-.092.168c-.02.098-.103.125-.293.073-.102-.028-.229-.041-.321-.076-.171-.062-.303-.091-.478.005-.107.06-.244.073-.317-.041-.034-.053-.18-.09-.278-.13-.146-.065-.126.006-.161.04-.019.021-.053.037-.082.055-.278-.18-.629-.05-.946-.045-.312.004-.634-.08-.941.016-.253-.16-.468-.067-.707.016-.131.045-.663.036-.77-.012-.185-.085-.331-.096-.575-.034-.2.048-.473.027-.712.046-.117.009-.312.06-.326.05-.19-.149-.454.06-.649-.034-.136-.067-.307-.115-.438-.181-.122-.064-.205-.087-.38-.032-.088.027-.312.032-.347.009-.121-.087-.229-.018-.346-.02-.292-.005-.511.07-.765.093-.229.02-.497-.064-.755-.09-.181-.017-.415-.059-.459.095a.888.888 0 01-.204.016c-.22 0-.434-.048-.654.034-.117.044-.263-.128-.492-.027-.068.03-.331-.021-.478-.06-.224-.06-.404-.15-.662-.016-.054.03-.239 0-.361.01-.083.006-.19.022-.229.052-.249.185-.561.275-.975.247-.366-.023-.756.005-1.082-.121-.088-.035-.307-.025-.434 0-.112.023-.132.013-.229-.016-.473-.149-.975-.165-1.55-.13-.361.02-.809.157-1.17-.033a.323.323 0 00-.151-.007c-.2.035-.478.129-.575.097-.22-.071-.361-.106-.605-.028-.073.023-.239-.002-.351-.018-.112-.016-.209-.057-.322-.071a2.454 2.454 0 00-1.057.087c-.283-.186-.624-.06-.946-.035-.093.007-.185.05-.268.044-.18-.014-.38-.09-.517-.066-.219.036-.356.034-.541-.028-.073-.025-.248.016-.375.032-.063.01-.117.03-.176.044-.224-.218-.658-.035-.96-.11-.044-.012-.097-.016-.122-.032-.073-.041-.131-.076-.185.007-.034.05-.088.1-.136.148-.181-.043-.312.13-.542.014-.077-.039-.365-.025-.506.01-.468.116-.878.024-1.248-.08-.171-.049-.239-.097-.439-.028-.263.093-.551.194-.897.045-.049-.02-.195-.004-.283.01-.39.057-.741.148-1.184.144-.215 0-.449.121-.736.119-.064 0-.151.046-.195.034-.717-.16-1.633-.09-2.198-.421a.352.352 0 00-.152-.037c-.312.13-.487-.052-.731-.068-.044-.231-.526-.016-.682-.144a.69.69 0 00-.215.034c-.214.105-.453.142-.76.105a1.256 1.256 0 00-.429.016c-.278.08-.478-.126-.795-.018-.185.064-.521.046-.784.037-.215-.01-.473.032-.634-.083-.21.055-.351.02-.556-.039-.282-.08-.609.041-.931.037-.058.167-.317.098-.521.1-.117 0-.234.021-.351.033-.624.061-1.258.064-1.891.066-.225 0-.454-.08-.678-.08-.205 0-.405.06-.61.09a.36.36 0 01-.146-.008c-.239-.183-.468 0-.702 0-.087 0-.248.02-.258.01-.234-.266-.517.02-.765-.019-.224.137-.522.117-.834.1-.316-.015-.643-.072-.95.024-.38-.09-.81-.096-1.2-.163-.219-.039-.37-.119-.672-.091-.249.023-.536 0-.795.043-.121.02-.243.092-.336-.016-.366-.004-.702-.069-1.092.055-.263.082-.711.037-1.072.05-.146.005-.293.02-.439.012-.619-.035-1.194.087-1.803.103a6.537 6.537 0 01-.956-.05c-.346-.04-.726-.106-1.111 0-.107.027-.336-.023-.488-.058-.385-.089-.502-.128-.887-.046-.268.058-.575-.066-.784.07 0 .001-.147-.051-.234-.07a33.17 33.17 0 00-.858-.171.51.51 0 00-.166.007c-.156.032-.317.06-.453.107-.171.06-.254.02-.376-.036-.282-.13-.287-.124-.648.018a1.177 1.177 0 01-.332.06c-.17.009-.346 0-.521 0 .005.116-.283.082-.336.134-.093.09-.117.142-.356.067a1.936 1.936 0 00-.556-.053c-.117 0-.327.09-.336.083-.21-.124-.57-.012-.77-.113C75.538.277 75.247.27 75.09.3c-.297.057-.449.032-.614-.08a.553.553 0 00-.249-.028 8.23 8.23 0 01-.994.08c-.327.003-.61.126-.985.096-.151-.011-.2.181-.507.115-.234-.05-.346.073-.521.112-.434.098-.532.08-.83-.142-.019-.016-.058-.025-.092-.037-.024.021-.063.04-.063.06 0 .103-.059.153-.317.133-.263-.023-.541-.058-.8.027-.034.012-.097-.007-.15-.007-.268 0-.468-.14-.805-.05-.21.057-.536.01-.785.046-.428.06-.843.03-1.262 0-.263-.019-.307.034-.312.135 0 .016-.078.032-.117.05-.156-.144-.336-.005-.507-.011-.18-.007-.36-.021-.536-.026a.653.653 0 00-.21.014c-.36.165-.73.083-1.12.035-.23-.028-.493 0-.742.011-.01 0 0 .078-.005.119 0 .025 0 .05-.005.078-.078-.005-.155-.007-.229-.012-.043.023-.121.067-.131.062-.293-.09-.492-.085-.527.103-.014.085-.112.087-.258.08a3.51 3.51 0 00-.653.023c-.205.03-.492-.064-.741-.108-.068-.011-.073-.086-.215-.036-.121.043-.238.16-.433.064-.19-.096-.332.055-.522 0-.136-.039-.35.007-.478-.08-.043-.028-.18-.034-.277-.034-.337-.003-.683-.09-1.014.009-.278-.147-.673-.067-1.005-.115-.175-.025-.297-.002-.297.096l-.16-.018c-.376-.043-.707-.162-1.117-.158-.214.002-.517-.103-.6.092-.311.016-.628.055-.935.04-.498-.022-.546-.031-1.107.065-.131.023-.292.011-.439.007-.229-.01-.458-.04-.628.068a.438.438 0 01-.161.007c-.19-.02-.38-.045-.57-.068-.147-.019-.405.023-.332-.124-.098.007-.195.016-.293.018-.097.005-.233-.016-.287.007-.156.071-.185-.007-.278-.03-.049-.01-.214.019-.229.042-.054.084-.083.091-.22.023-.15-.076-.267.007-.38.048-.019.007-.019.04 0 .048.069.025.147.043.225.064a4.838 4.838 0 00-.273.039.403.403 0 00-.122.045c-.068.044-.132.09-.195.133-.015-.009-.03-.023-.049-.027-.248-.073.005-.128.03-.19.053-.151-.098-.229-.44-.188-.136.016-.17-.107-.345-.023-.083.04-.337-.004-.507 0-.142.005-.283.032-.424.03a.324.324 0 01-.195-.08c-.142-.14-.273.05-.444.002-.063-.018-.107.076-.034.138.083.066.16.144.175.217.025.119.113.07.205.03a.375.375 0 00.122-.083c.112-.13.156-.004.224.012.21.05-.131.199.205.162.02-.08.014-.094.024-.103a1.57 1.57 0 01.112-.105c.01.043.03.087.035.13a.19.19 0 01-.025.103c-.01.019-.058.032-.088.05-.024-.013-.063-.024-.063-.038 0-.034.015-.069 0-.034-.23.135-.249.14-.317.054-.039-.045-.014-.091-.15-.045-.181.06-.225.199-.513.194.04.062.073.126.137.277-.01.03-.034.005-.04-.023-.004-.023.01-.046.015-.066.05.018.122.036.137.06.01.024-.034.056-.107.029-.24-.149-.473-.025-.688-.1 0 0-.117.045-.126.073-.03.11-.02.228-.386.171-.034-.004-.087.016-.131.025.034.014.063.035.102.044.156.039.424-.046.868.22.214-.007-.127.075-.36.013-.03-.007-.054-.046-.04-.062.068-.064.147-.125.234-.185 0 0 .117.02.146.041.044.04.044.09.093.126.098.071.117.023.166-.023a.476.476 0 01.204-.057.994.994 0 00.464.094c0 .025.02.064 0 .069-.171.038-.346.07-.907-.014-.463-.126-.536-.133-.614-.133-.073 0-.142.007-.215.012.03.027.064.052.088.082.132.146.473.162.712.215.282.062.117.133.136.2a.476.476 0 01-.185.024c-.151-.039-.122-.14-.331-.187-.147-.032-.356.061-.44-.064-.072-.117-.326-.09-.516-.103-.078.15-.448-.021-.55.107-.02-.036-.084-.096-.06-.105.327-.121.006-.14-.126-.188-.034.05.03.11-.151.142-.332.06-.312.069-.166.21.034.035.044.11.005.12-.166.043-.478-.046-.497.128-.034-.01-.102-.023-.098-.025.064-.11-.097-.108-.253-.126-.205-.025-.23-.083-.093-.14.112-.048.24-.09.361-.133.288.177.23 0 .234-.057 0-.052-.068-.105-.107-.158-.103-.004-.205-.011-.468-.007-.093 0-.04-.016.014-.013a.315.315 0 01.127.036c-.024.035-.068.067-.107.101-.059-.034-.122-.07-.04-.126l.03-.018zm114.457-.719l.083-.039.063.037c-.034.01-.063.02-.102.028-.005 0-.029-.016.175-.055l-.068-.005c.02-.018.029-.039.059-.053.009-.004.058.012.092.016-.029.014-.053.026-.302.071zm-103.016.415c-.059.02-.113.043-.615.185l.444-.121c.039.052.117.105.112.157-.01.097-.185.058-.292.05-.074-.006-.132-.04.18-.205.058-.02.112-.044.239-.062l-.069-.004c.02-.019.03-.04.059-.053.01-.005.059.011.093.016a.4.4 0 01-.151.037zm92.78-.918l-.083-.039.078-.03c.019.016.044.03.058.048 0 .003-.034.014-.117-.082l-.009.032c-.039-.01-.083-.014-.113-.027-.009-.005.025-.028.035-.044.029.014.053.025.151.142zM51.167 2.95l.083-.04.063.037c-.034.01-.063.021-.102.028-.005 0-.03-.016.175-.055l-.068-.005c.02-.018.03-.039.059-.052.01-.005.058.011.092.016-.029.013-.053.025-.302.07zm4.748-.382c-.059.02-.112.043-.843.064.121-.01.21-.026.292-.019.127.01.297.019.366.057.087.053-.103.2-.264.23a.405.405 0 01-.141 0c-.083-.078-.151-.16.424-.268.059-.021.112-.044.239-.062a.519.519 0 01-.068-.005c.02-.018.029-.039.058-.052.01-.005.059.011.093.016-.03.013-.054.025-.151.036l-.005.003zm-8.677-.847l-.01.032c-.038-.01-.082-.014-.112-.028-.01-.004.025-.027.035-.043.029.014.053.025.126.25-.034-.06-.058-.085-.068-.113-.005-.023.01-.046.015-.066.048.018.122.036.136.06.01.025-.034.057-.127-.092h.005zm102.739 1.33c-.049-.021-.088-.04-.127-.056.039-.011.083-.034.112-.03.064.005.122.026.181.037-.049.014-.103.03-.454.062l.083-.039.064.037c-.035.009-.064.02-.103.027-.005 0-.029-.016.244-.039zm-1.813-1.557c-.049-.02-.088-.039-.127-.055.039-.011.083-.034.112-.03.063.005.122.024.18.037-.048.014-.102.028-.302.028-.058.02-.112.043-.351.13l.112-.069c.02.012.069.03.059.037-.029.034-.073.066-.112.1-.015-.018-.034-.038.122-.132.058-.02.112-.043.307-.043v-.003zm1.969.703c-.034-.06-.059-.085-.068-.112-.005-.023.009-.046.014-.067.049.019.122.037.137.06.01.025-.034.057-.064-.103-.092.016-.156.036-.214.034-.049 0-.093-.03-.141-.048l.224-.085c.029.023.063.046.112.32zm-3.061.34l-.21-.063c.064-.01.132-.03.19-.025.088.004.171.027.259.04-.074.017-.152.03-.459.019l-.063.057c-.029-.023-.058-.043-.083-.094-.019.007-.068.028-.078.023a3.294 3.294 0 01-.346-.121c-.024-.01-.015-.048 0-.066a.187.187 0 01.107-.042c.186 0 .371.117.312.234.054.002.103.004.376.036l-.005.003zm-.03-.464l-.082-.039.078-.03c.019.017.043.03.058.049 0 .002-.034.013-.229-.055-.097-.005-.156 0-.2-.012-.049-.011-.078-.036-.117-.055.078-.025.176-.077.234-.07.083.01.132.068.195.105-.049.013-.097.027.063.107zM49.125 3.121c0-.048-.01-.073-.01-.098.015-.09.151-.071.263-.062.063.005.127.023.19.037-.073.011-.156.018-.224.036-.063.016-.112.044-.731.074.073-.014.132-.032.175-.028.103.01.2.032.298.05-.078.03-.156.08-.24.085-.058.002-.13-.057.274-.09l.005-.004zm94.228-.97l-.01.032c-.039-.01-.083-.014-.112-.027-.01-.005.024-.028.034-.044.029.014.053.025.326.323-.087-.062-.185-.12-.263-.183-.019-.016.005-.046.015-.071.088.039.18.075.268.116.054.026.097.055.146.083-.034.011-.068.023-.404-.231v.002zm-92.864.323l-.01.032c-.038-.01-.082-.014-.111-.028-.01-.004.024-.027.034-.043.03.014.053.025.37.226-.263.005-.356-.03-.297-.121.01-.014.053-.03.078-.03.136 0 .39.106.336.133-.039.02-.127.018-.404-.17h.005zm98.693-1.81c-.043.022-.082.04-.117.06-.024-.02-.073-.04-.063-.054.01-.03.049-.057.078-.084.029.023.063.048.078.43-.024-.016-.078-.032-.073-.046a.458.458 0 01.054-.206c.009-.016.146-.027.214-.02.034.004.083.064.063.082-.073.066-.17.126-.234-.162zM52.761 3.009c-.088.028-.117.044-.146.044-.068-.005-.132-.019-.195-.028.014-.016.03-.043.039-.043.083.004.166.013.243.199 0-.007-.024-.03-.029-.05 0-.023.01-.049.015-.071.156.02.292.006.404-.05.05.027.103.054.142.084.02.014.014.048.01.048-.18.014-.361.025-.483-.133zm91.103-1.318l-.083-.039.078-.03c.02.016.044.03.059.048 0 .003-.034.014-.078-.146-.039.027-.073.082-.127.087-.17.018-.399-.1-.336-.183.088-.117.151.066.307.01.229-.083.097.04.18.25v.003zm-97.347.403c-.068-.034-.151-.071-.22-.112-.014-.01.03-.055.035-.053.117.01.234.016.34.037.03.004.025.061.01.091-.004.014-.077.019-.35-.185-.088.027-.117.046-.151.046-.215 0-.298-.074-.351-.154-.01-.016.02-.048.053-.06a.325.325 0 01.137-.01c.107.054.204.114.497.4zm93.979 1.004c-.034.01-.068.03-.088.026a4.982 4.982 0 01-.375-.067c-.01-.002.01-.043.024-.064.005-.009.049-.023.054-.02.127.038.254.08.375.155.112-.043.229-.085.385-.192l-.117.06c-.024-.019-.073-.04-.063-.053.01-.03.049-.057.078-.085.029.023.059.048.059.142l.253-.055c0 .041.02.085 0 .124a.246.246 0 01-.141.112c-.171.046-.361.082-.434-.085l-.01.002zm3.856-1.887c-.112-.016-.302.02-.293-.087-.107-.016-.224.009-.302-.07-.244-.246-.258-.244-.599-.059-.03.016-.035.058-.059.058-.117.002-.239-.003-.361-.005.02-.02.039-.062.059-.062.497.01-.078-.114.092-.176 0 .012-.004.02-.009.032-.039-.009-.083-.014-.112-.027-.01-.005.024-.028.034-.044a.143.143 0 01.078.071c.185-.098.614.032.697-.162.034.004.068.011.107.016.19.023.38.04.561.073.107.018.199.062.282.098.015.007-.029.053-.073.069-.053.023-.19.087-.185 0 0-.236-.249.032-.312-.041l.102.224c.112.016.303-.02.926.268-.277-.014-.497-.007-.594-.115-.02-.02-.025-.043-.039-.064.049.003.107 0 .151.01.205.047.385.166.653.054 0 0 .088.03.098.05.009.017-.025.056-.054.058-.093.009-.195.007-.848-.172v.003zm6.341.171c.025-.018.044-.043.083-.052a.369.369 0 01.142 0c.092.04.165.086.248.132l.117.067c-.112.02-.219.043-.331.057-.044.004-.132-.002-.142-.016-.048-.062-.078-.126.546-.073l-.068-.005c.02-.018.029-.039.059-.053.009-.004.058.012.092.016-.029.014-.053.026-.746-.077v.004zm.683-.62c.17.032.448-.005.351.1-.073.083-.322.129-.492.19-.035-.075-.093-.153-.088-.228 0-.025.17-.048-.312.281.117-.027.18-.052.253-.057.039-.002.127.023.132.039.01.06-.02.119-.195.098-.054-.007-.093-.036.346-.425l.005.002zM54.794 2.037l-.01.032c-.04-.01-.083-.014-.112-.028-.01-.004.024-.027.034-.043.03.013.054.025.556.446-.186-.071-.376-.126-.507-.201-.054-.035-.025-.154.039-.165.165-.037.365-.037.55-.048.005 0 .04.046.03.048-.283.096-.117.201-.04.306.01.016-.029.042-.053.06-.005.005-.034.005-.487-.405v-.002zm94.822-.7c.025 0 .059 0 .073.004.229.092-.239.176-.009.268-.23.094-.259-.069-.425-.076-.102-.004-.194-.055-.443-.048l.083-.039.063.037c-.034.009-.063.02-.102.027-.005 0-.029-.016.107-.06.098-.075.249-.141.215-.244-.02-.069.038-.117.214-.098.141.016.278.036.414.054a4.234 4.234 0 00-.185.14c-.01.01-.005.023-.01.034h.005zM42.729 3.047c-.014.025-.024.12-.087.128-.249.032-.512.04-.77.053-.035 0-.074-.025-.113-.04.04-.01.083-.031.122-.029.176.014.22-.03.22-.098 0-.099.15-.14.316-.167.171-.028.327.036.312.153zm104.611.092c-.064-.035-.137-.058-.146-.083-.02-.073.126-.176-.195-.183-.02 0-.049-.107-.03-.16.01-.02.205-.048.225-.037.068.04.097.094.136.142.098-.048.176-.066.278.005.054.039.268.007.234.1-.034.097-.185.058-.297.055-.195-.004-.225.023-.093.092.005.002-.063.037-.117.066l.005.003zm-4.426-1.417c-.229-.018-.551-.17-.57-.256-.01-.03.048-.08.102-.094.073-.018.175-.011.263-.016 0 .103.185.137.302.201.044.026-.063.11-.097.165zm-93.112.533l-.16-.036c.043-.014.087-.035.136-.044.156-.027.312-.055.468-.078.049-.006.107-.004.166-.004-.044.194.302.098.468.14.043.01.078.025.116.038-.034.016-.063.04-.107.044-.107.016-.278.048-.312.03-.229-.129-.507-.124-.77-.087l-.005-.003zM140.945.963s.151.019.175.05c.059.074-.258.131-.063.223-.044.007-.117.025-.132.016a4.67 4.67 0 01-.409-.238c-.01-.005.073-.057.126-.064.069-.01.151.004.303.013zm-92.308.492l-.034-.055c.18-.011.059-.173.341-.146.23.02.38.064.376.179 0 .043-.059.084-.093.125-.049-.025-.117-.048-.141-.077-.112-.14-.278.004-.449-.028v.002zm-.672.48c-.015.06-.025.12-.05.18 0 .01-.077.027-.102.022-.102-.027-.2-.06-.297-.089.049-.032.083-.07.146-.094.2-.07.166-.098-.068-.112-.024 0-.053-.06-.053-.091 0-.016.058-.03.087-.046.078.089.2.057.322.023.01.032.03.066.03.098 0 .037-.015.071-.025.108l.01.002zM66.487.999c-.131-.012-.253-.005-.326-.03-.142-.053-.254-.121-.17-.217.019-.021.043-.04.067-.06.083.041.156.085.25.12.072.027.18.036.243.068.058.027.083.07.127.107l-.19.014V.998zm-17.46 1.217c-.122.041-.239.099-.38.12-.078.01-.195-.04-.292-.063.087-.05.16-.114.277-.148.064-.021.195 0 .293.013.034.005.049.035.107.078h-.005zm-.312.201c.049.003.103 0 .151.01.069.009.132.025.2.036-.078.014-.185.016-.229.041-.049.028-.049.078-.054.12 0 .025.02.052.035.08-.05 0-.132.011-.142 0-.117-.094-.224-.19-.331-.284.073-.005.141-.012.214-.012.049 0 .103.005.156.007v.002zm-.848.248s-.049-.021-.044-.028c.069-.117-.19-.11-.282-.167-.05-.03-.108-.085-.078-.103a.568.568 0 01.243-.069c.044 0 .122.053.146.09a.92.92 0 01.103.23c0 .015-.059.033-.088.049v-.002zm104.035-.893c.044.016.156.037.181.071.068.11-.156.028-.215.064a.444.444 0 01-.112.044c-.107-.048-.21-.085-.327-.007-.014-.055-.053-.11-.034-.16.01-.023.147-.042.229-.044.074 0 .064.094.278.034v-.002zm-104.58.575c-.103.022-.167.045-.191.038-.068-.018-.151-.098-.185-.009-.063.154-.385.08-.4.069-.136-.133.2-.018.224-.085a.16.16 0 01.078-.094c.064-.03.195-.075.225-.066.092.032.15.085.253.147h-.005zm93.159-.895c-.151-.007-.243 0-.297-.018-.044-.014-.068-.085-.063-.085.151-.032.302-.067.458-.078.034 0 .093.092.141.142-.102.016-.209.032-.243.039h.004zm8.063 1.316c-.112.034-.224.073-.346.103-.03.006-.088-.012-.132-.019.044-.032.107-.062.127-.096.029-.057.029-.117.049-.174.004-.02.039-.039.063-.057.029.023.063.044.088.066.048.05.087.101.151.177zm-8.574-.387c-.025-.028-.083-.069-.069-.078.088-.05.186-.1.303-.128.039-.01.156.039.219.069.034.016.039.07.034.07-.151.026-.307.044-.487.067zm-85.415.663c.107-.03.205-.066.317-.086.034-.007.102.03.15.048-.204.066-.175.1.069.11.015 0 .024.034.034.05-.122 0-.253.013-.36-.007-.083-.016-.132-.071-.205-.115h-.005zm91.171-.443c.03-.028.039-.044.054-.046a.286.286 0 01.102.004c.069.035.147.069.186.11.043.046.048.099.058.149 0 .002-.107.02-.122.014a.639.639 0 01-.131-.096c-.054-.048-.103-.097-.142-.133l-.005-.002zm-1.145-.719c.029.007.117.032.205.057-.064.046-.117.094-.195.133a.786.786 0 01-.19-.053c-.054-.023-.098-.052-.142-.08-.019-.014-.024-.034-.039-.05.044-.005.088-.014.132-.016.049 0 .097.004.224.011l.005-.002zm-90.845-.17l.341.065c-.097.032-.214.098-.288.089-.121-.014-.214-.078-.316-.119.087-.011.18-.02.268-.032l-.005-.002zm-2.603.673s.01-.03.024-.032c.035-.004.093-.011.108-.002.087.044.18.09.234.142.02.02-.05.069-.103.094a.309.309 0 01-.146-.01c-.049-.061-.078-.127-.117-.192zm107.633-.867c-.049-.002-.108 0-.147-.009a.384.384 0 01-.146-.06c-.019-.013 0-.054.029-.061a.55.55 0 01.2-.016c.107.02.2.055.298.087.029.009.038.032.048.05 0 .005-.034.02-.053.02-.073 0-.151-.006-.225-.01h-.004zm-3.183-.007c-.064-.06-.137-.123-.2-.19-.005-.007.083-.043.083-.043.121.046.238.094.35.146.015.007-.014.046-.043.06-.03.014-.088.011-.195.025l.005.002zm-13.517 1.122c-.234.009-.234-.067-.186-.156.01-.02.039-.039.064-.057.034.009.073.016.097.03.069.034.132.07.186.11.024.02.014.05.024.075h-.18l-.005-.002zm1.745-.614a18.76 18.76 0 01-.229-.089c.102-.027.199-.062.312-.08.029-.005.092.037.141.057l-.224.112zm2.388.197l-.156-.22c.064-.009.137-.032.195-.025.185.02.093.092.083.144 0 .023-.054.046-.122.103v-.002zM41.111 2.34c.054-.005.122-.014.195-.014.044 0 .093.01.137.018.02.005.048.019.044.028a.488.488 0 01-.035.14.345.345 0 01-.097.024c-.063-.045-.122-.096-.244-.194V2.34zm11.596-.492l-.316-.156c.068-.01.136-.027.2-.025.107.004.277-.014.248.08-.01.027-.063.05-.132.098v.003zm118.098 1.146c.132-.02.186-.041.234-.036.108.009.273-.021.288.066 0 .027-.059.057-.088.087a32.17 32.17 0 01-.429-.117h-.005zm-120.53.014c.102.004.156.004.205.011.063.012.122.03.185.046-.068.01-.136.018-.2.025-.112.014-.224.032-.336.044-.024.002-.093-.023-.088-.032.015-.032.03-.076.078-.09.054-.016.142-.004.161-.004h-.005zm94.608-2.1l-.239-.166c.069-.004.137-.013.21-.013.136 0 .258.013.209.096-.014.025-.087.041-.18.082zm5.421 2.443c-.161.062-.215.087-.278.1-.025.005-.103-.02-.112-.036-.025-.052-.03-.11-.044-.165.063.012.131.019.195.035.083.02.161.043.239.066zm-9.121-.613c-.048-.02-.121-.046-.175-.08-.029-.019-.024-.05-.034-.076.049 0 .107-.011.136 0 .073.028.142.062.2.096.015.01 0 .032-.014.048-.005.007-.044.005-.113.014v-.002zm-.282-.847c.044-.039.083-.078.122-.117.063.035.19.078.175.101-.029.044-.141.076-.214.115l-.078-.097-.005-.002zm-90.982-.176l-.102.087-.38-.121c.044-.01.092-.03.126-.026.117.014.23.037.356.058v.002zm94.452.7c-.097.053-.19.108-.287.16-.015-.02-.039-.043-.034-.061.019-.062-.039-.156.214-.135.039.004.073.025.107.036zm2.052.742c-.097.016-.19.039-.282.043-.064.002-.132-.02-.195-.032.126-.034.258-.069.385-.1.019.02.039.038.092.086v.003zm-90.362-.232c.132-.02.21-.04.283-.038.039 0 .107.064.097.07a.63.63 0 01-.2.062c-.029.003-.083-.04-.175-.094h-.005zm98.586-1.832c-.049-.021-.122-.046-.176-.08-.029-.019-.024-.049-.034-.076.049 0 .107-.012.137 0 .073.027.141.062.199.096.015.01 0 .032-.014.046-.005.007-.044.004-.112.014zm-.941.45l-.341-.135c.044-.007.092-.018.131-.016.132.01.332-.018.288.101-.01.018-.054.034-.078.05zm-6.171-.167c-.244-.011-.366-.011-.478-.027-.039-.007-.058-.055-.063-.087 0-.01.097-.034.122-.028.107.03.204.07.414.142h.005zm-96.06.582c-.118.04-.19.08-.215.073a.443.443 0 01-.17-.08c-.01-.007.087-.062.126-.06.073.005.136.034.258.067zm93.004-.362c-.098-.025-.137-.034-.176-.046l.239-.105c.019.02.063.043.054.06-.025.034-.078.064-.117.093v-.002zm-94.516.339a7.258 7.258 0 01-.224.093c-.02-.032-.068-.08-.049-.089.059-.025.151-.032.234-.043.005 0 .03.03.04.039zm3.826 1.009c-.082.03-.155.06-.233.089-.02-.032-.073-.08-.05-.09.06-.024.152-.034.23-.045.01 0 .034.03.053.046zm89.096-.55l-.166-.07c.068-.005.146-.019.209-.012.074.01.137.037.2.055l-.243.028zm-86.064-.242l-.097.082-.224-.112c.044-.009.092-.03.122-.025.073.012.136.037.2.055zm84.553-.934c-.035-.03-.088-.061-.108-.096-.009-.013.039-.036.059-.055l.224.112-.18.04h.005zm9.076.202c-.156-.069-.205-.083-.234-.103-.034-.023-.054-.053-.083-.078.068-.005.175-.02.2-.007.048.03.053.076.117.188zm-4.553.622a5.959 5.959 0 00-.107.108c-.029-.035-.073-.067-.073-.1 0-.03.044-.063.068-.095l.112.087zm.741-1.194c-.073.009-.146.025-.224.03-.034 0-.073-.026-.108-.04a25.9 25.9 0 01.283-.082c.01.02.025.041.049.092zM44.021 2.687c.063-.037.098-.053.127-.071.058.043.112.089.17.132-.043.005-.102.02-.131.014-.063-.02-.112-.05-.166-.075zm100.15-1.243l-.131.117c-.02-.032-.059-.064-.049-.094.015-.041.063-.083.102-.121.025.03.049.061.083.1l-.005-.002zm-92.029.675l-.239.082c-.03-.023-.088-.06-.083-.064a.958.958 0 01.2-.061c.02-.005.068.025.117.043h.005zm-1.053-.295c-.205.027-.273.046-.288.039-.058-.025-.097-.062-.14-.092.043-.009.097-.032.13-.027.089.016.162.043.303.082l-.005-.002zm-4.05 1.171c-.02-.034-.06-.068-.064-.105 0-.016.054-.034.083-.05.058.043.117.087.175.133-.043.004-.087.011-.195.022zm3.611-.844c-.024-.023-.073-.05-.063-.06a.718.718 0 01.17-.08c.01-.002.079.032.118.05l-.23.09h.005zm-4.313.66c.063-.04.092-.056.121-.072.059.044.117.087.18.13-.043.005-.102.023-.13.014-.07-.018-.118-.048-.172-.073zM145.243.68c.034-.022.068-.05.107-.075.02.021.068.042.059.058-.015.03-.059.057-.093.087-.02-.021-.044-.04-.073-.07zm.302.63l.141-.02c.015.02.049.045.035.061-.02.023-.074.04-.113.058-.014-.021-.024-.042-.063-.099zm1.37 1.948c-.01-.012-.025-.04-.044-.067.044-.007.097-.023.132-.016.048.01.082.035.121.053-.044.007-.087.011-.209.03zm.321-1.103l.103-.06c.019.032.049.062.049.094 0 .016-.054.034-.083.05a4.038 4.038 0 01-.069-.084zm.498 1.128c-.054-.019-.112-.032-.108-.041.01-.032.044-.062.069-.092.034.011.092.023.087.032 0 .032-.029.064-.048.1zm.248-.792c0-.041-.014-.073 0-.105 0-.01.069-.016.103-.023.009.032.029.064.024.096 0 .01-.063.016-.127.03v.002zm.103.719c-.054-.005-.117-.01-.117-.012a.21.21 0 01.024-.094s.098 0 .098.005c.004.032 0 .064 0 .1h-.005zm2.12-2.245c-.063.052-.083.07-.107.091-.029-.023-.073-.043-.083-.068-.005-.016.039-.037.063-.058l.127.035zm1.355.412c-.01-.012-.024-.04-.044-.067.044-.007.098-.023.132-.016.049.01.083.035.122.053-.044.007-.088.011-.21.03zm-.239 1.473l-.107.092c-.029-.023-.073-.044-.083-.069-.005-.016.039-.036.064-.057l.126.034zm3.646-1.606c0-.041-.014-.073 0-.105 0-.01.069-.016.103-.023.009.032.029.064.024.096 0 .009-.063.016-.127.03v.002zm.2 2.204c-.053-.019-.112-.033-.107-.042.01-.032.044-.061.068-.091.029.011.093.023.088.032 0 .032-.029.064-.049.1zm.897-.497l.141-.02c.015.02.049.045.035.061-.02.023-.074.039-.113.057-.014-.02-.024-.04-.063-.098zm18.708-1.26c-.049-.017-.107-.033-.161-.051.044-.01.088-.032.122-.028.064.007.122.028.185.044l-.146.034zm-128.875.365l-.127-.048c.068-.009.132-.023.2-.023.034 0 .073.025.107.04l-.18.031zm-.073.54c-.064.053-.083.071-.108.092-.029-.023-.073-.044-.082-.069-.005-.016.039-.036.063-.057l.127.034zm4.601.183c.04-.025.073-.052.088-.05.068.005.131.02.195.032-.025.014-.049.043-.068.041-.069 0-.137-.014-.215-.023zm.722-1.196c.048.016.107.032.16.05-.043.009-.087.032-.121.027-.064-.007-.122-.027-.186-.043l.147-.034zm.882.329c.044-.025.073-.053.088-.05.068.004.131.02.195.032-.025.016-.05.043-.069.04-.068 0-.136-.013-.214-.022zm-.034.467s-.03-.039-.034-.067c0-.004.092-.022.121-.016.05.01.083.035.122.053l-.214.03h.005zm-.069.288s-.029-.039-.034-.066a.31.31 0 01.122-.016c.049.009.083.034.122.052l-.214.03h.005zm.878-.13c-.083 0-.156.007-.224 0-.02 0-.034-.032-.05-.048.07-.005.137-.014.206-.012.02 0 .034.03.063.06h.005zm2.008.23l-.107.092c-.03-.022-.073-.043-.083-.068-.005-.016.04-.037.063-.057.054.013.103.027.127.034zm.653-1.548l-.107.075c-.02-.02-.068-.041-.058-.057.014-.03.058-.057.092-.087.02.02.044.039.073.069zm.424 1.142s-.029-.04-.034-.067a.31.31 0 01.122-.016c.049.01.083.034.122.053-.044.007-.088.011-.214.03h.004zm.507.464c-.112-.03-.15-.039-.195-.05.05-.014.093-.035.147-.04.034-.001.078.02.122.03-.03.026-.059.049-.074.06zm1.54-1.034c-.053-.019-.111-.032-.106-.041.01-.032.043-.062.068-.092.034.011.092.023.087.032 0 .032-.029.064-.048.1zm.82.279c-.112-.03-.151-.039-.195-.05.048-.014.092-.035.146-.04.034-.002.078.019.122.03-.03.026-.059.048-.073.06zm11.606.579c.048.016.107.032.16.05-.043.01-.087.032-.121.028-.064-.007-.122-.028-.186-.044.044-.009.083-.02.147-.034zM54.11 2.428s.044-.016.059-.023c.014.016.034.034.039.05 0 .007-.034.014-.054.021l-.044-.05v.002zm.298-.375s-.05-.021-.044-.026c.01-.016.039-.03.058-.045.015.009.049.02.044.025-.01.016-.039.03-.058.046zm-.025.208l-.092-.03c.02-.007.044-.023.053-.02.034.004.064.018.098.027l-.059.023zm.049.133l.063-.044c.015.01.05.02.044.025-.01.016-.039.03-.058.046a.434.434 0 00-.049-.027zm-7.336-.927s.034.02.049.027c-.034.007-.073.016-.108.019-.014 0-.029-.016-.043-.026l.107-.02h-.005zm9.49.03l-.092-.03c.02-.007.044-.023.053-.02.035.004.064.018.098.027l-.059.023zm.083.318l.05.027c-.035.007-.074.016-.108.018-.015 0-.03-.016-.044-.025l.107-.02h-.005zm.42.35s-.044.016-.059.023c-.015-.016-.034-.035-.039-.05 0-.008.034-.014.054-.021l.044.05v-.002zm.243-.373l-.063.043c-.015-.009-.049-.02-.044-.025.01-.016.039-.03.059-.046l.048.028zm-14.608.645s.043-.023.053-.02c.034.004.064.018.098.027-.02.007-.044.023-.054.02-.034-.004-.063-.018-.097-.027zm16.173-.82c-.03-.008-.063-.02-.093-.029.02-.007.044-.023.054-.02.034.004.063.018.097.027a.617.617 0 00-.058.023zm3.47.603l-.058.023c-.015-.016-.034-.035-.039-.05 0-.008.034-.015.054-.021l.044.05V2.22zm-14.5-.712l.048.027c-.034.007-.073.016-.107.019-.015 0-.03-.016-.044-.025l.107-.021h-.005zm.082-.117s.044-.023.054-.02c.034.004.063.018.097.027-.02.007-.044.023-.054.02-.034-.004-.063-.018-.097-.027zm-.473 2.023s.044-.023.054-.02c.034.004.063.018.097.027-.02.007-.044.023-.053.02-.035-.004-.064-.018-.098-.027zm.746-1.533s-.049-.02-.044-.025c.01-.016.04-.03.059-.046.014.01.048.02.043.025-.01.016-.039.03-.058.046zm1.033-.192s-.044.016-.058.023c-.015-.016-.034-.035-.04-.05 0-.008.035-.014.054-.021l.044.05V1.69zm-.365 1.238l-.049-.028c.034-.007.073-.016.107-.018.015 0 .03.016.044.025l-.107.02h.005zm.487-1.087l-.058.023c-.015-.016-.034-.035-.04-.05 0-.008.035-.014.054-.021l.044.05V1.84zm.98-.52s-.034-.02-.049-.027c.034-.007.073-.016.107-.018.015 0 .03.016.044.025l-.107.02h.005zm-.166 1.38l-.048-.027c.034-.007.073-.016.107-.019.014 0 .029.016.044.026l-.108.02h.005zm.556-1.375l-.059.023c-.014-.016-.034-.035-.039-.05 0-.007.035-.014.054-.021l.044.05v-.002zm88.374-.483s-.044.016-.059.023c-.015-.016-.034-.034-.039-.05 0-.007.034-.014.054-.02l.044.05V.841zm-87.53.817s-.045.016-.06.023c-.014-.016-.033-.034-.038-.05 0-.007.034-.014.053-.021l.044.05V1.66zM139.51.716l.064-.043c.014.009.049.02.044.025-.01.016-.039.03-.059.046a.357.357 0 00-.049-.028zm.644.048l-.049-.027c.034-.007.073-.016.107-.018.015 0 .03.016.044.025l-.107.02h.005zm.029.206l-.058.023c-.015-.016-.034-.034-.039-.05 0-.007.034-.014.053-.02l.044.05V.97zm.312 1.003l.093.03s-.044.022-.054.02c-.034-.005-.063-.018-.097-.028l.058-.022zm-89.32 1.141l-.048-.027c.034-.007.073-.016.107-.018.015 0 .03.016.044.025l-.107.02h.005zm90.987-1.091l.064-.044c.014.01.048.021.043.026-.009.016-.039.03-.058.045-.015-.009-.029-.018-.049-.027zm.434.606l-.058.023c-.015-.016-.035-.034-.039-.05 0-.007.034-.014.053-.02l.044.05v-.003zm.96.56l-.058.024c-.015-.016-.034-.035-.039-.05 0-.007.034-.014.053-.021l.044.05V3.19zm1.268-.43l-.049-.027c.034-.007.073-.016.107-.018.015 0 .029.016.044.025l-.107.02h.005zm.209-.37l.064-.043s.048.02.043.025c-.009.016-.039.03-.058.045-.015-.009-.029-.018-.049-.027zM52.352 2.08l-.05-.027c.035-.007.074-.016.108-.019.015 0 .03.016.044.026l-.107.02h.005zm-.23.828l.059-.022c.015.016.034.034.039.05 0 .007-.034.014-.054.02l-.043-.05v.002zm.585-1.686l-.048-.027c.034-.007.073-.017.107-.019.015 0 .03.016.044.025l-.108.021h.005zm95.72.117l-.049-.028c.034-.007.073-.016.107-.018.015 0 .03.016.044.025l-.107.02h.005zM52.337 2.81l-.049-.027c.034-.007.073-.016.108-.019.014 0 .029.016.043.025l-.107.021h.005zm96.251-.638l.048.027c-.034.007-.073.016-.107.018-.014 0-.029-.016-.044-.025l.108-.02h-.005zM46.556 1.318s.044-.023.053-.02c.035.004.064.018.098.027-.02.007-.044.023-.054.02-.034-.004-.063-.018-.097-.027zm102.3.602s.044-.023.053-.02c.035.004.064.018.098.027-.02.007-.044.023-.054.02-.034-.004-.063-.018-.097-.027zm1.058-.201s-.049-.021-.044-.026c.009-.016.039-.03.058-.045.015.009.049.02.044.025-.01.016-.039.03-.058.046zm-.22.938s-.049-.02-.044-.025c.01-.016.039-.03.059-.046.014.009.049.02.044.025-.01.016-.039.03-.059.046zm-.005.265l-.058.023c-.015-.016-.034-.034-.039-.05 0-.007.034-.014.053-.02l.044.05v-.003zM52.898 2.73l-.064.043s-.049-.02-.044-.025c.01-.016.04-.03.059-.045l.049.027zm98.01-1.91s-.049-.021-.044-.026c.01-.016.039-.03.059-.046.014.01.048.02.043.025-.009.016-.039.03-.058.046zm.268 1.61l-.093-.03c.02-.006.044-.022.054-.02.034.004.063.018.098.027a.626.626 0 00-.059.023zm1.267-.608l-.058.022c-.015-.016-.034-.034-.039-.05 0-.007.034-.014.054-.02l.043.05v-.002zm.19-.486l-.048-.027c.034-.007.073-.016.107-.018.015 0 .029.016.044.025l-.107.02h.004zm-.19 1.344l.059-.023c.014.016.034.034.039.05 0 .007-.034.014-.054.02l-.044-.05v.003zm-.058.727l-.063.044c-.015-.01-.049-.02-.044-.025.009-.016.039-.03.058-.046.015.009.029.018.049.027zm1.906-1.817l.092.03s-.043.023-.053.02c-.034-.004-.064-.018-.098-.027l.059-.023zm-101.242.733l.063-.044s.049.02.044.025c-.01.016-.04.03-.059.046l-.048-.027zm101.544.597l.093.03s-.044.023-.054.02c-.034-.004-.063-.018-.097-.027.019-.007.039-.014.058-.023zM53.609 2.35l-.058.023c-.015-.016-.034-.034-.04-.05 0-.007.035-.014.054-.02l.044.05V2.35zm104.898-.508l-.058.023c-.015-.016-.034-.034-.039-.05 0-.007.034-.014.053-.021l.044.05v-.002zm7.868 1.3l-.049-.028c.034-.006.073-.016.107-.018.015 0 .029.016.044.025l-.107.02h.005zM53.492 2.526l.093.03c-.02.007-.044.023-.054.02-.034-.004-.063-.018-.097-.027l.058-.023zM174.53 2.33s-.048-.021-.043-.026c.009-.016.039-.03.058-.045.015.009.049.02.044.025-.01.016-.039.03-.059.046zm2.618-.44l.049.028c-.034.006-.073.016-.107.018-.015 0-.03-.016-.044-.025l.107-.02h-.005zM46.614 1.757s.044-.022.054-.02c.034.004.063.018.098.027-.02.007-.044.023-.054.02-.034-.004-.064-.017-.098-.027zm-9.095.005c.126.02.404.06.672.112.059.012.083.069.122.103-.088.007-.18.03-.253.018-.083-.013-.19-.125-.21.005-.02.153-.292.185-.468.263-.053.023-.297-.046-.156.071.078.062.17.117.36.055.181-.057.352-.121.557-.17.282-.066.521-.111.843-.095.253.011.37-.126.57-.184.142-.04.244-.114.376-.167a.343.343 0 01.15.023c.044.02.06.053.088.08-.204.005-.063.181-.34.154a.203.203 0 00-.089.05c.059.03.132.078.195.078.186-.002.298-.112.56-.053.225.05.245-.098.366-.155.161-.076.356-.138.537-.206.185.128.365.002.54-.012.079-.007.264-.045.084-.121-.074-.03-.117-.076-.171-.114-.044-.032-.078-.09-.132-.097-.126-.013-.282.085-.404-.018-.254.092-.478.19-.848.2-.249.006-.244.05-.337-.04-.029-.027-.044-.064-.087-.084a.363.363 0 00-.142 0c-.02.002-.029.032-.024.048.02.043.049.084.073.128-.093-.018-.195-.03-.278-.055a1.045 1.045 0 01-.273-.112c-.087-.057-.131-.018-.224-.007-.254.034-.492.09-.785.062-.19-.019-.078.048-.024.082.058.039.136.076.16.117.015.023-.043.064-.092.087-.024.011-.097 0-.146-.007-.02-.002-.03-.023-.049-.025-.205-.02-.02-.186-.288-.174-.165.007-.326.041-.487.048-.19.007-.448.03-.56-.016a1.118 1.118 0 00-.561-.069c-.195.028-.366.08-.546.01a.719.719 0 00-.536-.024.558.558 0 01-.249-.025c-.131-.05-.307-.064-.317-.011-.02.105-.058.217 0 .313.04.064-.043.069-.068.103-.063.083-.2.19.156.204-.014.023-.01.055-.044.066-.17.067-.136.197.093.22.322.032.477.124.595.252.029.032.092.055.14.082.035-.03.079-.06.093-.091.025-.058 0-.113.205-.115.4-.002.82-.11 1.185.062.044.02.15.014.224.011.039 0 .078-.02.112-.032-.015-.009-.03-.02-.049-.027-.268-.08-.536-.16-.804-.236-.039-.011-.107-.002-.16-.004.023-.032.053-.092.072-.092.385.01.298-.135.303-.224.01-.268.029-.286.536-.261.024 0 .053.002.239.011l-.005.005zm-2.364.243c-.035-.014-.103-.035-.098-.044.044-.066.487-.16.648-.149.21.016.142.087.117.138-.02.032-.117.052-.18.08-.141-.1-.317-.044-.487-.025zm4.016-.071c-.107.05-.205.119-.248.112-.103-.016-.18-.069-.269-.105.108-.035.21-.076.322-.101.025-.005.107.05.19.094h.005zm-4.09.361c-.039-.016-.097-.032-.097-.048 0-.046.015-.094.03-.14.053.005.106.005.155.012.112.016.23.03.332.053.029.006.029.04.044.064l-.468.061.004-.002zm.883-.284c.049-.011.107-.034.126-.03a.665.665 0 01.171.08c.005.005-.068.037-.107.056-.064-.037-.127-.071-.19-.108v.002zm4.552-.048l.064-.043s.049.02.044.025c-.01.016-.04.03-.059.046a.432.432 0 00-.049-.028zm-2.48.19s-.05-.02-.044-.025c.01-.016.039-.03.058-.046.015.01.049.021.044.026-.01.016-.04.03-.059.045zm-7.307-.377c.131.055.263.112.4.164.024.01.092-.002.136-.004-.015-.025-.04-.053-.049-.078-.01-.032-.03-.069-.015-.1.015-.042-.024-.145.18-.05.064.029.2.031.24.065.136.122.238-.043.482.007.005-.016-.195.028-.112-.077a.36.36 0 01.112-.07c.112.037.22.079.327.118-.073.016-.151.03-.332.03-.15.086.025.054.122.077a.87.87 0 01.273.103c.034.025-.02.078-.039.12-.078-.017-.18-.026-.234-.054-.107-.061-.083-.061-.156-.022-.136.07-.19.15-.22.247-.038.119-.223.174-.492.144-.043.023-.078.05-.131.064-.059.016-.132.018-.2.027.034.014.063.035.102.042.108.02.225.034.332.052-.04.032-.102.062-.112.094-.01.028.049.06.078.09.136.095.136.095-.044.143-.04.012-.088.014-.132.021.02.016.04.046.064.046.38.023.76.041 1.14.06.21.008.147-.072.18-.122.06-.082.142-.08.137-.053-.01.15.112.08.283.064.2-.016.438-.006.595.085.311-.117.297.062.4.108a.75.75 0 00.38.089c-.03-.03-.074-.06-.079-.09-.01-.038-.01-.105.03-.114.112-.025.214-.02.243.067.03.084.122.164.2.242.025.023.093.037.142.055.024-.043.053-.085.082-.144v.016c-.039-.01-.082-.014-.112-.027-.01-.005.025-.028.034-.044.03.014.054.025.078.055.108.011.346.046.298-.02-.122-.16.092-.213.287-.287.054-.02.088-.052.127-.08-.444-.025-.439-.027-.702-.201a.751.751 0 00-.292-.112c-.098-.014-.224.016-.59.057-.098.007.039-.014.175-.034.025-.003.05 0 .078.002-.083.041-.16.087-.253.123a.366.366 0 01-.141 0c-.035-.006-.054-.03.146-.091.16-.167-.034-.128-.215-.087-.268.062-.307.005-.282-.105.005-.032-.03-.064-.05-.099-.058.02-.155.04-.175.064-.083.135-.282.15-.516.115-.254-.037-.186.084-.293.114-.048.014-.136 0-.204-.004.024-.026.058-.048.073-.074a.224.224 0 01.224-.116c.204.018.346.013.35-.112 0-.028.113-.076.176-.078.151-.005.307.02.459.016a.525.525 0 00.248-.067c.132-.1-.136-.045-.17-.084-.054-.062-.147-.124-.156-.188-.015-.082.019-.17.058-.252.01-.022.098-.054.146-.054.054 0 .156.036.151.054-.02.083.078.129.21.101.117-.025.18-.1.258-.158.01-.007-.044-.043-.068-.043-.273-.007-.55-.019-.824-.01-.336.014-.663.072-1.004-.01-.127-.033-.302-.026-.458-.026-.146 0-.307 0-.43.027-.136.032-.165-.098-.345-.018-.161.073-.356-.016-.517-.073-.034-.012-.131.016-.195.025.034.037.059.078.107.11.02.014.098.007.151.01.22.013.171.047.04.097-.083.033-.147.076-.215.113l.02.009zm4.201 1.082c-.107-.025-.214-.048-.307-.078-.024-.007-.029-.05-.01-.057.069-.023.152-.039.225-.057.053.05.112.098.156.15.01.012-.054.035-.605-.001l.083-.04.059.037c-.035.01-.064.021-.103.028-.005 0-.029-.016.498.02l.004-.002zm-1.847-1.146c.053.011.175.02.2.048.073.089.112.185.16.279a.186.186 0 01-.058.023c-.224.075-.336-.147-.57-.05-.034-.03-.078-.055-.098-.088-.044-.075-.15-.173-.087-.221.112-.09.219.105.448.009h.005zm-.741.551c-.03.064-.034.112-.083.151a.387.387 0 01-.195.014c-.268-.08.161-.135.044-.217-.02-.014 0-.055.03-.067.024-.009.126-.002.136.01.039.038.048.082.063.11h.005zm-.341.636c-.093-.082-.166-.146-.23-.212 0-.005.147-.046.152-.044.097.055.19.114.273.176.005.005-.088.037-.19.078L32 2.899zm2.769.112c.063-.036.097-.052.126-.07l.17.132c-.043.005-.102.02-.13.014-.064-.02-.118-.05-.166-.076zm-.805-.18l.093.03s-.044.022-.054.02c-.034-.005-.063-.018-.097-.027l.058-.023zm-.287-.11l-.05-.028c.035-.006.074-.016.108-.018.015 0 .03.016.044.025l-.107.02h.005zM31.8 2.524s.044-.023.054-.02c.034.004.063.018.097.027-.02.007-.044.023-.054.02-.034-.004-.063-.018-.097-.027zm-1.823-.86c-.254-.026-.083-.115-.122-.172-.01-.016-.083-.02-.127-.03-.048.158-.141.083-.282.02-.117-.05-.337-.052-.434-.107-.166-.091-.278-.023-.439-.016-.317.014-.687 0-.955-.07-.24-.065-.234.04-.351.045.17.105.058.153-.146.1-.205-.052-.376-.038-.57-.022-.142.011-.288.027-.43.02-.122-.004-.239-.048-.365-.059-.117-.01-.298-.02-.356.011-.259.13-.556.076-.853.074-.215-.003-.449-.074-.648.025-.152-.057-.303-.126-.483-.016-.107-.04-.166-.124-.36-.064-.098.03-.22.04-.332.062.102.02.2.048.307.057.2.016.41.027.614.032.239.007.448.027.575.137a.396.396 0 00.146.005c.044-.053.073-.11.108-.165.126.027.243.07.375.082.2.016.102.094.166.128a.773.773 0 00.243.016c.054-.119.127-.107.312-.038.088.032.37.075.376-.078.053 0 .102.002.156.004-.049.21.317.101.487.128.205.032-.17-.183.21-.132.195.025.473-.01.594.043.176.076.356.078.546.092.04-.028.078-.055.122-.078.117-.06.234-.117.356-.174.044.096.093.19.137.286.15-.007.355-.046.443-.016.215.078.23-.048.346-.053.142-.006.293-.004.43-.018.077-.007.14-.039.214-.06h-.01zm-4.295-.174l.064-.044s.049.02.044.025c-.01.016-.04.03-.059.046l-.049-.027zm13.932 1.505l-.093-.018c-.02.03-.049.06-.058.092 0 .011.034.025.21 0 .097.002.092.075.063.146-.015.039-.074.073-.113.11-.063-.037-.136-.073-.19-.114-.02-.016.03-.06.01-.07-.078-.031-.244-.05-.248-.08-.01-.043.15-.107.121-.139-.048-.055-.19-.091-.292-.135-.044.023-.127.048-.122.069.01.041.122.103.098.114-.113.06-.21.02-.313-.027-.024-.012-.146.025-.224.036-.073.01-.18.032-.22.019-.199-.074-.194-.206.035-.245.156-.028.21-.048.18-.115-.02-.04-.238-.098.05-.096.043 0 .102.062.121.099.015.032-.024.07-.015.107.005.03.044.057.069.085.024-.018.068-.037.078-.057.02-.048.024-.096.039-.144.024-.076.014-.07.214-.012a.6.6 0 00.254-.016c.068-.025.092-.078.156-.11.034-.018.107-.016.165-.023-.088.13.405.124.283.273-.063.078-.049.167-.185.32-.088.005-.069-.034-.059-.073l-.014.004zm-25.508-.688c.044.011.083.02.126.032-.053.013-.102.034-.155.036-.074.003-.19.005-.22-.016-.141-.105-.312-.153-.57-.096-.025-.039-.093-.098-.059-.114.078-.041.215-.055.307-.094.249-.103.43.069.639.032.19-.034.36-.062.57-.044.156.014.346-.084.493.026a.66.66 0 00.175-.037c.063-.025.112-.06.166-.09.048.033.117.063.141.097.054.08.151.085.283.046.063-.019.166-.042.175-.069.064-.16.161-.085.288-.018.058.032.156.052.234.075.175.048.02.067-.04.092-.033.016-.097.048-.116.043-.107-.023-.22-.084-.297-.075-.137.016-.249.112-.37.11-.357-.003-.795.016-1.044-.071-.375-.13-.522.05-.78.055-.024 0-.054.03-.078.045l.127.032.005.003zm12.264.354c.229-.018.512-.07.677-.027.19.05.273.062.449.007.068-.023.229.018.346.03-.088.02-.185.036-.263.064-.069.025-.176.082-.166.089.107.066.078.13-.083.087a2.585 2.585 0 00-1.18-.06c-.121.02-.346.005-.428-.034-.166-.08-.259-.064-.444-.018-.156.039-.356-.069-.351-.167 0-.019.058-.035.088-.053.195.135.336.117.434-.032.034.007.102.016.102.018-.064.138.16.12.453.14.044-.005.2-.03.366-.044zm10.826.664c-.156.053-.492-.057-.512.126a.405.405 0 01-.132.014c-.263-.021-.526-.049-.492.148 0 .01-.024.023-.044.025-.146.026-.55-.157-.521-.238.005-.02.073-.054.073-.052.253.075.565-.16.8.032.014.011.097.004.145.004 0-.025.015-.057-.014-.077-.098-.069-.02-.103.083-.15a.663.663 0 01.477-.013c.093.03.142.09.19.124-.034.034-.038.048-.053.055v.002zm6.605-1.737c.024.002.03.062.03.096 0 .012-.055.02-.079.032-.097-.1-.205-.064-.327-.011-.131.057-.136.05-.428-.018a.452.452 0 00-.2 0c-.093.034-.151.086-.234.128-.083.04-.176.077-.264.116-.14-.082-.014-.126.108-.169 0 0-.02-.016-.02-.025-.01-.197.034-.224.37-.215.152.004.308.016.62.032.039.002.239.016.434.039l-.01-.005zm-31.153.643c-.16.005-.175.174-.458.073-.16-.055-.434-.036-.643-.066-.078-.011-.132-.07-.195-.108.087-.009.18-.03.263-.025.185.014.322-.009.482-.057.278-.087.337-.073.473.055-.058.034.01.057.064.05.048-.004.082-.04.126-.064-.048-.002-.097-.009-.141-.007-.058.003-.112.014-.049.019.278 0 .366.009.454.018-.044.03-.093.06-.132.09-.01.008-.005.02-.01.031-.078-.004-.15-.013-.224-.011l-.01.002zm16.827.577c.122.057.014.08-.093.064-.131-.018-.253-.083-.37-.078-.156.007-.303.092-.454.09-.17 0-.336-.06-.502-.092.117-.037.23-.09.361-.105.23-.028.473-.033.819-.055.283-.067.127.119.244.173l-.005.003zm7.253.082s-.088.005-.136.005c-.18.002-.18.002-.18-.096.165.013.33-.147.496 0 .01.006.088.009.103 0 .234-.142.429-.044.633.02.254.076-.024.124-.034.186-.302-.026-.633.004-.882-.117v.002zm-10.348.559c-.025-.003-.04-.033-.044-.049 0-.004.039-.02.058-.02.102.002.21.023.302.011.137-.016.264-.05.39-.078-.068-.043-.131-.089-.21-.128-.048-.023-.126-.03-.19-.043.074-.03.142-.078.225-.087.112-.012.292-.014.346.018.132.076.205.172.297.261a.15.15 0 01-.058.02c-.322-.01-.512.218-.829.11-.131-.006-.21-.006-.283-.015h-.004zm3.948-.62c-.059.082-.142.162-.21.242-.068.078-.21.075-.278.023-.146-.12-.234.046-.35.004.01-.034.034-.07.019-.103-.03-.093.39.05.263-.114-.034-.043.18-.126.278-.19.2 0 .36.018.278.137zm2.29.43c.07 0 .274.068.2-.058-.014-.023.006-.05.01-.075l.23.011c.048.096.063.202.156.289.165.162-.157.048-.22.089-.136.087-.166.032-.175-.044-.01-.091-.185-.055-.293-.07.156-.03-.414-.158.088-.145l.005.003zm-2.812.235a5.342 5.342 0 01-.453.181c-.01.002-.078-.034-.122-.053.4-.068-.248-.279.205-.34-.088-.07-.176-.138-.254-.209-.01-.009.05-.036.078-.055.035.016.064.035.098.048.039.014.083.023.122.032.034.083.058.165.102.248.015.022.088.038.137.059.029.03.097.08.082.09h.005zm-4.006.071c-.195-.066-.39-.13-.561-.208-.078-.034-.132-.103-.122-.151.01-.055.336-.048.449.023.14.091.248.194.37.295.01.007 0 .016 0 .025-.044.007-.107.025-.132.016H25.8zM39.99 2.8c.058-.108.146-.21.23-.316.019-.025.058-.046.087-.067.02.021.053.04.063.06.034.064.112.137.073.192-.048.069-.185.1.088.142.137.02-.039.048-.117.05-.17.005-.132.037-.058.083.02.011-.015.041-.03.073-.219-.055-.4-.103-.336-.217zm-2.194.432c.147-.036.293-.078.454-.1.068-.01.166.02.253.031-.024.033-.039.067-.078.094-.097.062-.336.076-.287.186l.044.105c-.103-.005-.225.007-.298-.016-.156-.046.03-.062.059-.092.058-.057.083-.112-.107-.128-.044-.004-.083-.02-.127-.034.029-.016.048-.037.083-.046h.005zM.663 1.204c-.02-.014.01-.046.02-.069.092.018.185.048.277.05.166.005.342-.023.502-.011.142.01.273.055.405.085-.024.016-.039.034-.073.045-.112.046-.239.108-.37.02-.166-.107-.298-.015-.493.02-.078-.042-.18-.09-.268-.143v.003zm31.289 2.448c-.03-.032-.049-.068-.088-.098a.286.286 0 00-.302-.016c-.063.03-.078.08-.141.112-.054.03-.137.08-.21.009-.034-.032-.068-.07-.049-.103.073-.133.317-.133.546-.144.18-.01.322.034.322.135-.015.02-.044.062-.078.105zm-28.208-2.3a.293.293 0 01.17-.08c.317 0 .634.064.941-.025.015-.004.127.037.132.06 0 .027-.064.082-.093.082-.341-.02-.682-.034-1.102.066-.02-.039-.068-.077-.048-.103zm6.536.783c.24.007.478.02.707.043.01 0-.024.106-.039.16-.053-.01-.112-.018-.151-.034-.122-.055-.21-.016-.322.012-.165.039-.292.02-.239-.124 0 .003.025-.057.044-.057zm19.966-.586c.176.06.478.083.478.227-.23.057-.434.082-.59-.053-.03-.025-.107-.039-.166-.057.024-.078.024-.2.273-.115l.005-.002zm13.8 1.966c.273-.048.546-.105.843-.057.03.004.068.034.063.036-.034.019-.083.03-.112.048-.122.069-.195.03-.268-.023-.063.044-.117.115-.195.124-.117.011-.258-.023-.39-.037.03-.048.03-.087.054-.091h.005zm-10.368.016c-.137-.053-.22-.137-.312-.21a.511.511 0 01.16-.06c.171.048.332.103.493.16.02.007.005.032.01.076-.122.013-.293.057-.351.034zM23.09 3.41c-.063-.02-.02-.109-.024-.166.068.014.16.018.205.043.121.062.219.147.424.05a.337.337 0 01.102.01.733.733 0 01-.058.17c-.005.008-.088.008-.069.006-.234-.041-.429-.062-.58-.112zm19.415-1.29c-.107-.007-.229.016-.341.028.03-.044.058-.124.083-.124.322.007.648.025.97.041.02 0 .034.019.049.028-.04.011-.078.02-.117.032l-.21.062c-.141-.023-.283-.058-.429-.067h-.005zm-23.124-.057c-.059-.02-.054-.094-.044-.142 0-.025.083-.046.127-.068.058.027.141.052.166.084.058.083.126.151.34.163.025 0 .045.03.069.045l-.166.026c-.15-.032-.336-.06-.487-.11l-.005.002zm-19.074-.7c-.02.027-.068.05-.107.073-.015-.032-.024-.066-.044-.098-.005-.012-.02-.023-.039-.03-.16-.062-.16-.114 0-.16a.615.615 0 00.059-.023c.082-.034.165-.069.175.02 0 .037-.015.074-.024.108-.01.037-.005.073-.03.108l.01.002zM41.033 3c.034.05.278.13-.073.105-.258-.018-.302.04-.297.135-.273-.043-.156-.153-.073-.192.126-.062.126-.231.463-.153-.01.034-.04.073-.02.105zm4.324.4c.034-.006.068-.018.102-.027a4.223 4.223 0 00-.063-.037c-.03.014-.054.026-.005.021a.363.363 0 01.21.082c-.059.016-.117.044-.171.042-.151 0-.302-.014-.453-.021-.03-.098.097-.156.258-.192.117-.025.248-.019.16.089-.058.027-.038.043-.033.041l-.005.002zm-8.292-1.405c.04-.036.093-.07.137-.105.078.025.17.044.234.076.185.1-.098.098-.166.142-.049.032-.16.043-.248.066.01-.037.014-.071.024-.108.005-.023 0-.05.02-.07zm-.945.717c.063-.023.15-.064.21-.058.18.021.072.094.082.147-.195.06-.41.062-.633.041.112-.043.224-.087.34-.128v-.002zm3.963-.31c-.054-.006-.098-.04-.142-.061.122-.048.244-.096.37-.14.01-.002.089.04.235.108-.273-.012-.224.128-.463.096v-.002zM18.85 1.969c.112.016.219.039.321.064.049.014.078.044.117.064-.058.023-.112.05-.18.064a.37.37 0 01-.156-.014c-.117-.038-.224-.084-.38-.144.185-.025.234-.04.273-.036l.005.002zm25.293-.302c.015-.08.005-.176.278-.133a.75.75 0 01.2.069c.02.009-.366.14-.473.135 0-.02-.01-.046-.005-.071zM34.35 3.57c.044.007.083.02.127.03-.049.013-.097.032-.151.038-.137.021-.273.042-.414.05-.059.005-.127-.024-.195-.038.083-.034.156-.076.253-.099.059-.013.151.005.224.01.049.002.103 0 .151.009h.005zm-9.827-.865c.03.004.05.036.05.057 0 .02-.015.05-.05.06-.131.038-.53-.019-.56-.08-.01-.017.03-.049.063-.055.064-.01.142-.007.185-.007.122.009.22.011.312.025zm7.834.746s.014-.025.034-.03a.385.385 0 01.131-.016c.03.007.03.039.044.062.044.06-.112.199-.244.217a.184.184 0 01-.073-.004c-.029-.014-.048-.032-.034-.023.059-.08.103-.144.146-.206h-.004zM5.279 1.41a.334.334 0 01-.136-.062c-.015-.014.01-.055.039-.06a.568.568 0 01.204-.011c.064.011.093.053.151.075.054.023.117.042.18.062l-.155.014c-.132-.007-.21-.005-.278-.016l-.005-.002zm37.31 2.123c-.123 0-.245 0-.362.007-.092.005-.18.028-.273.03a.31.31 0 01-.117-.035c.02-.03.054-.077.098-.08.097-.009.2.007.395.016l.253.062h.005zM30.83 2.757c.2 0 .4.005.595.007-.025.02-.044.055-.069.055-.156.007-.302.01-.292.112 0 0-.103.012-.103.007-.038-.052-.068-.105-.131-.203v.022zM2.218 1.281c.093-.004.19-.002.283-.011.068-.007.126-.03.195-.034.039 0 .121.027.117.034-.02.03-.05.073-.098.082-.058.012-.146-.004-.297-.011-.03-.007-.112-.032-.2-.057V1.28zm3.978.177c-.088 0-.18-.02-.273-.035.102-.036.204-.075.316-.103.025-.007.098.032.21.071-.117.032-.185.064-.253.067zm39.507 2.089c.107-.016.224-.02.336-.03 0 .012 0 .025-.01.034-.039.037-.073.094-.131.101-.103.012-.224-.007-.405-.016.112-.048.156-.08.21-.09zM9.734 2.297c-.087 0-.18-.02-.273-.034.103-.036.205-.075.317-.103.025-.007.098.032.21.071-.117.032-.185.064-.254.066zM52.971 3.51c.126 0 .258.007.38.019.053.004.097.027.146.04-.058.024-.132.07-.18.065-.142-.014-.278-.048-.424-.076.029-.02.053-.05.078-.05v.002zm-29.35-.739c.108-.016.225-.02.337-.03 0 .012 0 .026-.01.035-.039.036-.073.094-.131.1-.103.012-.225-.006-.405-.016.112-.048.156-.08.21-.089zm30.14.339c.209-.014.418.062.394.119-.049.1-.278.014-.429.027.01-.048.025-.096.034-.144V3.11zm-14.78.066a.287.287 0 01.102.005.653.653 0 01.151.112c.015.016-.024.041-.034.062-.048-.012-.117-.016-.146-.035-.058-.032-.093-.073-.127-.098.035-.03.04-.046.054-.046zm102.578.227c.078.016.151.036.224.052-.093.005-.185.014-.278.016-.073 0-.151-.002-.219-.011-.039-.005-.068-.027-.107-.041.029-.012.053-.03.082-.03.074 0 .147.007.22.01a.37.37 0 01.073.004h.005zM7.468 1.4a.44.44 0 01.17-.08c.015-.004.132.042.127.06-.01.034-.073.064-.141.121-.088-.055-.17-.09-.156-.1zm9.841.522c.044-.009.112-.03.127-.023.102.041.19.087.283.133-.044.007-.093.011-.195.025-.064-.039-.137-.087-.215-.135zm3.188 1.664c-.063-.02-.097-.062-.141-.094.053-.016.122-.05.16-.043.069.011.123.048.22.091-.132.025-.215.055-.239.046zm7.458-.266c.063-.002.132.021.195.032-.132.032-.263.067-.395.099l-.088-.09c.098-.015.19-.036.283-.04h.005zm18.001-.08a.36.36 0 01.17-.078c.089-.004.181.021.269.035v.023L46 3.288c-.01-.009-.058-.039-.049-.048h.005zM21.37 2.09c-.005-.017-.01-.042.005-.049a1.59 1.59 0 01.238-.073c.035-.007.088.01.132.016-.02.023-.03.055-.068.069-.069.027-.156.043-.21.06-.063-.015-.097-.02-.102-.024h.005zm.775-.39c-.035 0-.073-.025-.113-.039l.434-.075c.01.02.025.041.054.096-.132.007-.253.016-.375.018zm2.232.266c.117.009.234.023.346.04.02.003.025.044.01.065a.247.247 0 01-.083.05 9.825 9.825 0 01-.336-.119c.014-.007.044-.036.058-.034l.005-.002zm-7.024.073c.02.011.063.025.059.037 0 .057-.015.116-.19.1-.04-.004-.079-.02-.122-.034l.253-.103zM34.258 3.31l.243-.094c.02.03.074.067.054.087-.034.03-.117.048-.175.069a1.533 1.533 0 00-.127-.06l.005-.002zm18.176.138c-.068.009-.136.027-.2.022-.087-.006-.175-.03-.258-.048l.215-.039.248.062-.005.003zm-20.394.006c.014-.073.034-.144.049-.217.194.082.175.156-.05.217zm-2.316-.08c.064-.009.132-.03.19-.025.088.005.171.028.259.041-.073.016-.151.03-.239.048-.083-.025-.146-.043-.21-.064zm-.94.064c.005-.023.063-.043.102-.066.059.034.122.07.18.105-.048.014-.097.03-.21.062-.033-.043-.077-.073-.072-.1zm-.249.055c-.02-.03-.063-.062-.054-.089.01-.041.059-.08.088-.121.034.034.064.07.103.112a3.409 3.409 0 01-.137.098zm-5.995-.016c-.069.02-.152.064-.21.057-.185-.02-.073-.093-.083-.146.098.03.195.06.293.087v.002zM10.69 1.453c-.069.005-.146.018-.21.012-.073-.01-.136-.037-.2-.055l.244-.028.166.071zm14.72.419c-.01-.014.035-.037.059-.057l.234.11c-.039.009-.083.02-.175.04-.04-.03-.093-.059-.117-.093zm-20.155.396c.048-.014.092-.035.146-.04.034-.001.078.02.122.03a2.02 2.02 0 01-.073.06c-.112-.03-.151-.039-.195-.05zm3.149-.81c.043-.007.097-.023.131-.016.049.009.083.034.122.052l-.21.03c-.01-.011-.024-.039-.043-.066zm.74.05c-.068.01-.131.023-.2.023-.033 0-.072-.025-.107-.039l.18-.032.128.048zm3.705.808c-.005-.023.01-.046.015-.067.048.019.122.037.136.06.01.025-.034.057-.083.119-.034-.06-.058-.085-.068-.112zm.42-.78l-.05-.049c.069-.004.137-.013.205-.011.02 0 .034.03.064.06-.083 0-.156.006-.225 0h.005zm5.97 2.185c0-.032.01-.064.025-.094 0 0 .097 0 .097.005.005.032 0 .064 0 .1a1.374 1.374 0 01-.117-.011h-.005zm1.053-1.602c.02.011.069.03.059.037-.03.034-.073.066-.112.1l-.059-.068.112-.069zm.512-.043c.064.006.122.027.185.043-.043.01-.087.03-.126.027-.064-.004-.127-.022-.205-.038.063-.016.112-.037.146-.032zm1.2-.538c-.03-.023-.074-.044-.084-.069-.004-.016.04-.036.064-.057l.126.034-.107.092zm-.162.26l.103-.022c.01.032.03.064.024.096 0 .009-.063.016-.127.03 0-.04-.014-.074 0-.106V1.8zm.702 1.644c.01-.032.04-.062.059-.092.034.007.092.014.092.018-.01.04-.029.078-.058.142-.059-.04-.093-.055-.093-.068zm.897-.408c.044-.007.098-.023.132-.016.049.01.083.035.122.053-.044.007-.088.011-.21.03-.01-.012-.024-.04-.044-.067zm.56.273c.05-.014.093-.035.147-.04.034-.002.078.019.122.03a2.02 2.02 0 01-.073.06c-.112-.03-.151-.039-.195-.05zm.571.226c.044-.007.098-.023.132-.016.049.01.083.034.122.053-.044.007-.088.011-.21.03-.01-.012-.024-.04-.044-.067zm4.621-1.538c.068.005.132.021.195.032-.024.016-.049.044-.068.042-.068 0-.137-.014-.215-.023.044-.025.069-.053.088-.05zm-.283 1.286c-.029-.022-.073-.043-.082-.068-.005-.016.038-.037.063-.057.054.013.102.027.127.034l-.108.091zm1.59-.57c-.005-.022.01-.045.014-.066.049.019.122.037.137.06.01.025-.035.057-.083.119-.034-.06-.059-.085-.069-.112zm.014.625c.01-.032.044-.061.068-.091.034.011.093.023.088.032 0 .032-.03.064-.049.1-.053-.018-.112-.034-.107-.04zm.629-1.027c-.068-.005-.132-.018-.195-.028.014-.016.03-.043.039-.043.083.005.166.014.302.027-.088.028-.117.044-.146.044zm.507-.192c-.02-.032-.049-.062-.049-.094 0-.016.054-.034.083-.05l.068.084-.102.06zm2.398-.243c-.068-.004-.132-.018-.195-.027.015-.016.03-.044.04-.044.082.005.165.014.301.028-.087.027-.117.043-.146.043zm3.505.661s.068-.016.102-.022c.01.032.03.064.024.096 0 .009-.063.016-.126.03 0-.04-.015-.074 0-.106v.002zm.872.923l.103-.023c.01.032.029.064.024.096 0 .009-.063.016-.127.03 0-.04-.014-.074 0-.106v.003zm.883-1.126c.043-.01.087-.032.121-.028.064.007.122.028.186.044-.044.009-.083.02-.147.034-.048-.016-.107-.032-.16-.05zm4.81-.593c-.043.023-.087.044-.131.066l-.175-.082c.102.005.204.012.307.016zm-.306 1.334c.01-.032.043-.062.068-.091.03.011.092.023.087.032 0 .032-.029.064-.048.1-.054-.018-.112-.032-.107-.04zm.945-1.41c.068-.009.132-.022.2-.022.034 0 .073.025.107.039l-.18.032c-.054-.02-.088-.035-.127-.048zm-38.742.559c.068-.01.132-.023.2-.023.034 0 .073.025.107.039l-.18.032-.127-.048zm40.02 1.297l.014-.073c.102.005.205.012.307.016-.039.108-.205.053-.327.057h.005zm-14.673-.171c-.014-.016-.034-.034-.039-.05 0-.007.034-.014.054-.021l.044.05c-.025.01-.044.016-.059.023v-.002zm-.034-.186c.034-.006.073-.016.107-.018.015 0 .03.016.044.025l-.107.02-.049-.027h.005zm-.224-1.034s.044-.023.053-.02c.035.004.064.018.098.027l-.058.023-.093-.03zm-.663.842s.044-.023.054-.02c.034.004.063.018.097.027L30.534 3l-.093-.03zm.078-.325c-.039-.009-.083-.013-.112-.027-.01-.005.024-.028.034-.044l.083.04c0 .01-.005.02-.01.031h.005zm-.03-.549s.045-.023.054-.02c.034.004.064.018.098.027a.617.617 0 00-.059.023l-.092-.03zm14.756 1.032c.034.005.063.018.097.028-.02.006-.044.022-.053.02-.035-.004-.064-.018-.098-.027.02-.007.044-.023.054-.02zM62.349 1c-.039-.01-.083-.014-.112-.027-.01-.005.024-.028.034-.044l.083.039-.01.032h.005zM30.036 2.693c-.039-.009-.083-.013-.112-.027-.01-.005.025-.028.034-.044l.083.04-.01.031h.005zm-1.345.868c-.03-.021-.058-.044-.088-.064l.156.006-.063.058h-.005zm-.23-1.753l.064.036c-.034.01-.063.021-.102.028a.245.245 0 01-.044-.025l.083-.04zm-.57.739s-.043.023-.053.02c-.034-.004-.063-.018-.098-.027l.059-.023.093.03zm.015-.735l.078-.03c.02.017.044.03.059.049 0 .002-.034.013-.054.02a65.8 65.8 0 00-.083-.039zm-.94.687c-.035.007-.074.016-.108.018-.014 0-.029-.016-.044-.025l.108-.02.048.027h-.005zm-.113-.723c.01-.016.04-.03.059-.046.015.01.049.02.044.025-.01.016-.04.03-.059.046-.014-.01-.048-.02-.044-.025zm-2.983-.02s.044-.024.054-.021c.034.004.063.018.097.027l-.058.023-.093-.03zm-.531.265s.044-.023.053-.021c.035.005.064.018.098.027l-.058.023-.093-.03zm.093-.275c.01-.016.039-.03.058-.046.015.01.049.02.044.025-.01.016-.04.03-.059.046-.014-.009-.048-.02-.044-.025zm-.673 1.414s.044-.023.053-.02c.035.004.064.018.098.027l-.058.023-.093-.03zm.278-1.068c.01-.016.039-.03.058-.046.015.009.049.02.044.025-.01.016-.039.03-.058.046-.015-.01-.05-.02-.044-.025zm.01-.163l.077-.03c.02.016.044.03.059.048 0 .003-.034.014-.054.021a65.8 65.8 0 00-.083-.039zm.01-.032c-.04-.01-.084-.014-.113-.027-.01-.005.024-.028.034-.044l.083.039-.01.032h.005zm-.82 1.492c-.039-.01-.083-.014-.112-.027-.01-.005.025-.028.034-.044l.083.039s-.005.02-.01.032h.005zm-.112-.188s-.044.023-.053.021c-.035-.005-.064-.018-.098-.027a.5.5 0 00.058-.023l.093.03zm-.877.43c.02-.018.029-.038.058-.052.01-.005.059.011.093.016l-.083.039-.068-.005v.003zm19.834.074c-.015-.016-.034-.035-.04-.05 0-.007.035-.014.054-.021l.044.05s-.044.016-.058.023v-.002zm-1.136-.133c.02-.018.03-.039.059-.053.01-.004.058.012.092.016l-.083.04-.068-.005v.002zm8.594.092c.034.004.063.018.097.027-.02.007-.044.023-.053.02-.035-.004-.064-.018-.098-.027.02-.007.044-.023.054-.02zm-27.356-.037l.064.037c-.034.009-.064.02-.103.027-.005 0-.029-.016-.043-.025a65.8 65.8 0 00.082-.039zm-.282-.49c.034-.007.073-.016.107-.018.014 0 .03.016.044.025l-.108.02-.048-.027h.005zm.36-1.32c.035.005.064.018.098.027-.02.007-.044.023-.054.021-.034-.005-.063-.018-.097-.027.02-.007.044-.023.053-.021zm-.414-.108s.049.021.044.026c-.01.016-.04.03-.058.045l-.05-.027.064-.044zm-.17-.265c.034-.007.073-.016.107-.018.014 0 .029.016.044.025l-.108.02-.048-.027h.005zm-.317.677c.02-.018.029-.039.058-.052.01-.005.059.011.093.016l-.083.039-.068-.005v.002zm.112-.14c-.015-.015-.034-.034-.04-.05 0-.007.035-.013.054-.02l.044.05-.058.023v-.002zm-.034-.512c-.015-.016-.035-.034-.04-.05 0-.007.035-.014.054-.02.015.015.03.034.044.05l-.058.022V1.47zm-.712 2.046s.044-.023.054-.02c.034.004.063.018.097.027l-.058.023-.093-.03zm-.77-.044l.078-.03c.02.017.044.03.058.049 0 .002-.034.013-.053.02l-.083-.039zm.01-.032c-.04-.009-.083-.013-.113-.027-.01-.005.025-.028.035-.044l.082.04-.01.031h.006zm-.57-1.331c.033.004.063.018.097.027-.02.007-.044.023-.054.02-.034-.004-.063-.018-.097-.027.02-.007.044-.023.053-.02zm21.49 1.46c.02.01.04.022.064.036-.034.01-.063.02-.102.028a.21.21 0 01-.044-.026l.083-.038zm-.302-1.406c.015.016.035.035.04.05 0 .008-.035.015-.054.021l-.044-.05.058-.023v.002zm-.53.266s-.05-.02-.045-.025c.01-.016.04-.03.059-.046.014.01.029.018.048.027l-.063.044zM17.86 2.174s-.044.023-.054.02c-.034-.004-.063-.018-.097-.027l.058-.023.093.03zm20.819 1.183c-.015-.016-.034-.034-.04-.05 0-.007.035-.014.054-.021l.044.05c-.024.01-.044.016-.058.023v-.002zm-26.63-.973s-.043.023-.053.021c-.034-.005-.063-.018-.097-.027l.058-.023.093.03zm-.428-.826c.034-.007.073-.016.107-.018.015 0 .03.016.044.025l-.107.02-.05-.027h.006zm-1.692-.087c.034-.006.073-.016.108-.018.014 0 .029.016.043.025l-.107.02c-.02-.01-.034-.02-.049-.027h.005zm-.326.058c-.034.006-.073.016-.108.018-.014 0-.029-.016-.043-.025l.107-.02.049.027h-.005zm29.344.675c.014.016.034.034.039.05 0 .007-.034.014-.054.02l-.044-.05.059-.023v.003zM8.9 2.188s.049.02.044.025c-.01.016-.04.03-.059.046l-.049-.028.064-.043zm-.956.096c-.014-.016-.034-.035-.039-.05 0-.007.035-.014.054-.021l.044.05s-.044.016-.059.023v-.002zm30.095.785s-.044.023-.053.02c-.035-.004-.064-.018-.098-.027l.059-.023.092.03zM6.76 1.346c.016.016.035.034.04.05 0 .007-.034.014-.054.02l-.044-.05.059-.023v.003zm-1.842.892s-.043.023-.053.02c-.034-.004-.064-.018-.098-.027l.059-.023.092.03zm32.664.805l.078-.03c.02.017.044.03.059.049a.364.364 0 01-.054.02 65.8 65.8 0 00-.083-.039zm-.643-.87l.063.038c-.034.009-.063.02-.102.027a.245.245 0 01-.044-.025l.083-.04zm6.98.07s-.049-.021-.044-.026c.01-.016.039-.03.058-.045l.05.027-.064.044zm-.263.132c-.04-.009-.083-.013-.112-.027-.01-.005.024-.028.034-.044l.082.04-.01.031h.006zM3.329 1.391c-.014-.016-.034-.034-.039-.05 0-.007.034-.014.054-.02l.044.05-.059.023V1.39zm131.503 2.582c.034-.007.073-.016.107-.019.015 0 .03.016.044.025l-.107.021s-.034-.02-.049-.027h.005zm-99.478-.348c-.014-.016-.034-.035-.039-.05 0-.007.035-.014.054-.021l.044.05-.059.023v-.002zm8.258-1.572c.01-.016.039-.03.058-.046.015.009.049.02.044.025-.01.016-.039.03-.058.046-.015-.01-.05-.02-.044-.025zm-.707 1.558c-.034.007-.073.016-.107.018-.015 0-.03-.016-.044-.025l.107-.02.049.027h-.005zm3.154-.167c-.04-.01-.083-.014-.112-.028-.01-.004.024-.027.034-.043l.083.039c0 .011-.005.02-.01.032h.005zM34.116 1.91l.078-.03c.02.016.044.03.059.048a.323.323 0 01-.054.02l-.083-.038zm9.462 1.602c.01-.016.039-.03.058-.046.015.009.049.02.044.025-.01.016-.039.03-.059.046-.014-.01-.048-.02-.043-.025zm-10.656.169c.034-.007.073-.016.107-.018.015 0 .03.016.044.025l-.107.02-.049-.027h.005zm.127-.542c.02-.019.029-.04.058-.053.01-.005.059.011.093.016a65.8 65.8 0 01-.083.039l-.068-.005v.003zm-.956.096c-.039-.01-.083-.014-.112-.028-.01-.004.025-.027.034-.043l.083.039-.01.032h.005zm21.584.238c.02-.019.03-.04.059-.053.01-.005.058.012.093.016l-.083.039-.069-.005v.003zM41.91 2.538c.035-.007.074-.016.108-.019.014 0 .029.016.044.026l-.108.02-.048-.027h.005zM143.957.899c-.039-.009-.083-.013-.112-.027-.01-.005.024-.028.034-.044l.083.04c0 .01-.005.02-.01.031h.005zm5.591.435l.063.037c-.034.009-.063.02-.102.027-.005 0-.029-.016-.044-.025l.083-.039z" fill="#AD0002"/></g><defs><clipPath id="clip0_19_3299"><path fill="#fff" transform="matrix(-1 0 0 1 178 0)" d="M0 0h178v4H0z"/></clipPath></defs></svg>