<svg width="22" height="9" fill="none" xmlns="http://www.w3.org/2000/svg"><g clip-path="url(#clip0_74_52)"><path d="M14.324.512c-1.56 0-2.955.906-2.955 2.577 0 1.918 2.473 2.05 2.473 3.014 0 .406-.415.769-1.125.769a3.45 3.45 0 01-1.76-.508l-.322 1.688s.867.428 2.018.428c1.706 0 3.049-.95 3.049-2.65 0-2.026-2.484-2.155-2.484-3.049 0-.318.341-.666 1.049-.666.798 0 1.45.37 1.45.37l.315-1.63s-.709-.343-1.709-.343zM.046.636L.01.88s.656.135 1.247.403c.762.308.816.487.944 1.043l1.397 6.026H5.47L8.356.636H6.487L4.633 5.883l-.756-4.448c-.07-.51-.421-.8-.851-.8H.046zm9.062 0L7.642 8.353h1.782l1.46-7.717H9.108zm9.938 0c-.43 0-.657.257-.824.707l-2.61 7.01h1.868l.361-1.168h2.277l.22 1.168h1.648L20.549.636h-1.502zm.243 2.085l.554 2.896H18.36l.93-2.896z" fill="#1434CB"/></g><defs><clipPath id="clip0_74_52"><path fill="#fff" transform="translate(0 .5)" d="M0 0h22v8H0z"/></clipPath></defs></svg>